<?xml version="1.0" encoding="utf-8"?>
<!-- Generator: Adobe Illustrator 16.0.0, SVG Export Plug-In . SVG Version: 6.00 Build 0)  -->
<!DOCTYPE svg PUBLIC "-//W3C//DTD SVG 1.1//EN" "http://www.w3.org/Graphics/SVG/1.1/DTD/svg11.dtd">
<svg version="1.1" id="Layer_1" xmlns="http://www.w3.org/2000/svg" xmlns:xlink="http://www.w3.org/1999/xlink" x="0px" y="0px"
	 width="755.961px" height="253.486px" viewBox="0 0 755.961 253.486" enable-background="new 0 0 755.961 253.486"
	 xml:space="preserve">
<path opacity="0.75" fill="#FFFFFF" stroke="#000000" stroke-width="6" stroke-miterlimit="10" enable-background="new    " d="
	M657.78,137.787c0,6.627-5.373,12-12,12H107.279c-6.627,0-12-5.373-12-12V107.62c0-6.627,5.373-12,12-12H645.78
	c6.627,0,12,5.373,12,12V137.787z"/>
<path opacity="0.75" fill="#FFFFFF" stroke="#000000" stroke-width="6" stroke-miterlimit="10" enable-background="new    " d="
	M648.653,50.056c2.051,6.302-1.398,13.074-7.699,15.123l-512.096,166.56c-6.302,2.05-13.073-1.397-15.123-7.7l-9.331-28.688
	c-2.05-6.303,1.397-13.074,7.7-15.123L624.2,13.669c6.303-2.05,13.072,1.396,15.123,7.7L648.653,50.056z"/>
<g>
	<g>
		<path fill="none" stroke="#74BF44" stroke-width="15" stroke-miterlimit="10" d="M46.8,162.653
			C34.392,129.726,28.894,79.589,80.001,36.022"/>
		<g>
			<path fill="#74BF44" d="M66.112,198.522c-2.568-20.283-2.819-46.982,1.751-66.001l-23.082,25.151l-33.825,4.563
				C29.175,169.354,50.941,184.819,66.112,198.522z"/>
		</g>
	</g>
</g>
<g>
	<g>
		<path fill="none" stroke="#74BF44" stroke-width="15" stroke-miterlimit="10" d="M711.088,71.891
			c12.408,32.927,17.906,83.064-33.201,126.631"/>
		<g>
			<path fill="#74BF44" d="M691.778,36.022c2.566,20.284,2.818,46.983-1.752,66.001l23.082-25.151l33.824-4.563
				C728.713,65.189,706.95,49.725,691.778,36.022z"/>
		</g>
	</g>
</g>
</svg>
