<?xml version="1.0" encoding="utf-8"?>
<!-- Generator: Adobe Illustrator 16.0.0, SVG Export Plug-In . SVG Version: 6.00 Build 0)  -->
<!DOCTYPE svg PUBLIC "-//W3C//DTD SVG 1.1//EN" "http://www.w3.org/Graphics/SVG/1.1/DTD/svg11.dtd">
<svg version="1.1" xmlns="http://www.w3.org/2000/svg" xmlns:xlink="http://www.w3.org/1999/xlink" x="0px" y="0px"
	 width="310.667px" height="230px" viewBox="91.083 -84.419 310.667 230" enable-background="new 91.083 -84.419 310.667 230"
	 xml:space="preserve">
<g id="Layer_1" display="none">
	<g id="Layer_1_1_">
	</g>
	<g id="Layer_2" display="inline">
		<g opacity="0.75">
			<path fill="#1F448B" d="M36.293,91.279v-0.998l-0.688,0.713c-0.879-0.748-18.118-12.301-29.492-19.883l-0.445-0.297v-16.66
				c0-7.482,8.101-12.403,8.445-12.609l57.786-27.558h280.477c3.423,0,5.876,0.801,7.293,2.381c1.248,1.392,1.232,2.879,1.207,3.243
				v11.091l4.25,2.833V51.91l-4.083,3v10.791L326.341,87.9l-85.745,0.998l-2.005,2.38L36.293,91.279L36.293,91.279z"/>
			<path fill="#E4F4F9" d="M352.376,14.987c8,0,7.5,4.583,7.5,4.583v11.667l4.25,2.833v17.333l-4.083,3v10.75l-34,21.75l-85.917,1
				l-2,2.375c0,0-201.468,0-201.833,0c0.375,0-29.625-20-29.625-20s0-9.125,0-16.125s7.958-11.75,7.958-11.75l57.5-27.417
				C72.126,14.987,344.376,14.987,352.376,14.987 M36.293,90.279L36.293,90.279L36.293,90.279 M352.376,12.987H72.126h-0.452
				l-0.408,0.195l-57.5,27.417l-0.085,0.04l-0.08,0.048c-0.364,0.218-8.933,5.424-8.933,13.467v16.125v1.07l0.891,0.594
				c11.216,7.477,28.304,18.926,29.41,19.822c-0.51-0.413-0.865-1.285-0.558-2.155l1.882,0.666v2.003h201.833h0.931l0.601-0.712
				l1.409-1.674l85.001-0.989l0.571-0.007l0.482-0.31l34-21.75l0.922-0.59v-1.095v-9.737l3.268-2.4l0.815-0.6v-1.013V34.07V33
				l-0.891-0.594l-3.359-2.239V19.629c0.027-0.557-0.019-2.319-1.463-3.929C358.799,13.9,356.095,12.987,352.376,12.987
				L352.376,12.987z"/>
		</g>
		<g>
			<g>
				<defs>
					<path id="SVGID_1_" d="M326.043,86.904l34-21.75v-10.75l4.083-3V34.07l-4.25-2.833V19.57c0,0,0.5-4.583-7.5-4.583
						s-280.25,0-280.25,0l-57.5,27.417c0,0-7.958,4.75-7.958,11.75s0,16.125,0,16.125s30,20,29.625,20s201.833,0,201.833,0l2-2.375
						L326.043,86.904z"/>
				</defs>
				<clipPath id="SVGID_2_">
					<use xlink:href="#SVGID_1_"  overflow="visible"/>
				</clipPath>
				<path clip-path="url(#SVGID_2_)" fill="none" stroke="#88D6F6" stroke-width="3" stroke-miterlimit="10" d="M288.626,11.237
					c0,0,7.667,11.083,14.5,11.083s44.042,0,44.042,0s5,0.333,5,3.833s0,32.833,0,32.833s0.124,4.667-4.792,7.667
					s-22.416,12.25-22.416,12.25s-2.168,1.417-12.584,1.417s-115.917,0-115.917,0l-15.167,19.084"/>
			</g>
			<g>
				<defs>
					<path id="SVGID_3_" d="M326.043,86.904l34-21.75v-10.75l4.083-3V34.07l-4.25-2.833V19.57c0,0,0.5-4.583-7.5-4.583
						s-280.25,0-280.25,0l-57.5,27.417c0,0-7.958,4.75-7.958,11.75s0,16.125,0,16.125s30,20,29.625,20s201.833,0,201.833,0l2-2.375
						L326.043,86.904z"/>
				</defs>
				<clipPath id="SVGID_4_">
					<use xlink:href="#SVGID_3_"  overflow="visible"/>
				</clipPath>
				<polyline clip-path="url(#SVGID_4_)" fill="none" stroke="#88D6F6" stroke-width="3" stroke-miterlimit="10" points="
					113.626,83.57 38.96,83.57 12.96,68.237 12.96,52.632 78.96,22.57 167.293,22.57 190.127,-0.263 				"/>
			</g>
		</g>
		<g>
			<path fill="#EAF7FE" d="M130.748,49.089c0,3.603-2.902,5.405-8.708,5.405h-11.424v5.207c0,0.784-0.514,1.176-1.54,1.176
				c-0.989,0-1.483-0.392-1.483-1.176v-17.36c0-0.653,0.429-0.98,1.287-0.98h13.16c5.806,0,8.708,1.802,8.708,5.404V49.089z
				 M110.616,52.197h11.508c3.733,0,5.601-1.064,5.601-3.192v-2.156c0-2.128-1.858-3.192-5.572-3.192H110.84
				c-0.149,0-0.224,0.066-0.224,0.196V52.197z"/>
			<path fill="#EAF7FE" d="M152.504,51.525c0-1.4-1.315-2.1-3.947-2.1h-10.164v10.276c0,0.784-0.495,1.176-1.484,1.176
				c-0.989,0-1.483-0.392-1.483-1.176V42.005c0-0.784,0.494-1.176,1.483-1.176c0.989,0,1.484,0.392,1.484,1.176v5.124h9.884
				c4.816,0,7.224,1.484,7.224,4.452v8.12c0,0.784-0.494,1.176-1.483,1.176c-1.008,0-1.513-0.392-1.513-1.176L152.504,51.525
				L152.504,51.525z"/>
			<path fill="#EAF7FE" d="M166.027,60.737c-3.995,0-5.992-1.241-5.992-3.724v-1.596c0-2.465,1.997-3.696,5.992-3.696h11.9v-0.42
				c0-1.306-1.148-1.96-3.444-1.96h-3.948c-0.934,0-1.399-0.364-1.399-1.092c0-0.747,0.466-1.12,1.399-1.12h3.948
				c4.237,0,6.356,1.391,6.356,4.172v5.488c0,2.633-2.035,3.948-6.104,3.948H166.027z M174.567,58.552c2.24,0,3.36-0.615,3.36-1.848
				v-3.052h-11.676c-2.185,0-3.276,0.57-3.276,1.708v1.456c0,1.158,1.092,1.735,3.276,1.735H174.567z"/>
			<path fill="#EAF7FE" d="M204.107,57.601c0,2.091-2.127,3.136-6.385,3.136h-10.92c-0.934,0-1.398-0.364-1.398-1.092
				s0.466-1.093,1.398-1.093h10.92c2.297,0,3.444-0.316,3.444-0.951v-1.568c0-0.634-1.147-0.951-3.444-0.951h-5.768
				c-4.256,0-6.385-1.019-6.385-3.053v-1.316c0-2.389,2.193-3.584,6.58-3.584h3.836c0.953,0,1.429,0.374,1.429,1.12
				c0,0.374-0.126,0.648-0.378,0.826c-0.252,0.178-0.604,0.266-1.051,0.266h-3.836c-2.445,0-3.668,0.458-3.668,1.372v1.232
				c0,0.766,1.213,1.148,3.641,1.148h5.768c4.146,0,6.217,0.951,6.217,2.855V57.601L204.107,57.601z"/>
			<path fill="#EAF7FE" d="M211.809,54.857v1.708c0,1.326,1.297,1.987,3.892,1.987h4.146c0.932,0,1.398,0.365,1.398,1.093
				s-0.467,1.092-1.398,1.092H215.7c-4.556,0-6.832-1.381-6.832-4.144v-5.488c0-2.65,2.034-3.976,6.104-3.976h8.092
				c3.976,0,5.963,1.195,5.963,3.584v3.136c0,0.672-0.43,1.008-1.287,1.008H211.809z M211.809,52.925h14.056
				c0.149,0,0.224-0.065,0.224-0.196v-1.456c0-1.288-1.082-1.932-3.248-1.932h-7.699c-2.222,0-3.332,0.644-3.332,1.932V52.925
				L211.809,52.925z"/>
		</g>
	</g>
</g>
<g id="Layer_2_1_">
	<g opacity="0.5">
		<polygon fill="#1F448B" points="94.583,141.748 94.583,-64.17 196.075,-64.333 216.535,-69.919 340.59,-69.919 350.933,-64.713 
			396.25,-59.424 396.25,119.972 365.747,141.748 		"/>
		<path fill="#E4F4F9" d="M340.233-68.419l10.262,5.165l44.255,5.165V119.2l-29.483,21.048H96.083v-202.92l100.194-0.161
			l20.459-5.585H340.233 M340.945-71.419h-0.712H216.736h-0.402l-0.388,0.106l-20.073,5.479l-99.794,0.161l-2.995,0.005v2.995
			v202.92v3h3h269.183h0.961l0.782-0.559l29.483-21.048l1.257-0.897V119.2V-58.089v-2.67l-2.652-0.31l-43.728-5.104l-9.788-4.926
			L340.945-71.419L340.945-71.419z"/>
	</g>
	<g>
		<defs>
			<polygon id="SVGID_5_" points="94.417,-62.673 195.17,-62.833 215.743,-68.419 339.93,-68.419 350.247,-63.254 394.75,-58.088 
				394.75,119.2 365.102,140.248 94.417,140.248 			"/>
		</defs>
		<clipPath id="SVGID_6_">
			<use xlink:href="#SVGID_5_"  overflow="visible"/>
		</clipPath>
		<polyline clip-path="url(#SVGID_6_)" fill="none" stroke="#88D6F6" stroke-width="3" stroke-miterlimit="10" points="
			334.957,-61.963 341.794,-57.638 383.936,-52.408 383.936,114.55 434.28,127.334 		"/>
		<polyline clip-path="url(#SVGID_6_)" fill="none" stroke="#88D6F6" stroke-width="3" stroke-miterlimit="10" points="
			376.29,145.93 334.088,135.535 104.361,135.954 104.361,-71.518 		"/>
		<polyline clip-path="url(#SVGID_6_)" fill="none" stroke="#88D6F6" stroke-width="3" stroke-miterlimit="10" points="
			120.273,-68.419 120.273,-54.925 194.486,-54.925 219.1,-61.672 306.365,-61.672 335.463,-61.643 		"/>
	</g>
</g>
</svg>
