<?xml version="1.0" encoding="utf-8"?>
<!-- Generator: Adobe Illustrator 16.0.0, SVG Export Plug-In . SVG Version: 6.00 Build 0)  -->
<!DOCTYPE svg PUBLIC "-//W3C//DTD SVG 1.1//EN" "http://www.w3.org/Graphics/SVG/1.1/DTD/svg11.dtd">
<svg version="1.1" xmlns="http://www.w3.org/2000/svg" xmlns:xlink="http://www.w3.org/1999/xlink" x="0px" y="0px" width="366.5px"
	 height="103.495px" viewBox="0 0 366.5 103.495" enable-background="new 0 0 366.5 103.495" xml:space="preserve">
<g id="Layer_1" display="none">
	
		<image display="inline" overflow="visible" width="1920" height="1080" xlink:href="DD892D05.jpg"  transform="matrix(1 0 0 1 -986.5 -429.0962)">
	</image>
</g>
<g id="Layer_2">
	<g opacity="0.75">
		<path fill="#ED1E24" d="M132.202,91.279l-2.005-2.38L44.452,87.9L9.75,65.701V54.91l-4.083-3V33.535l4.25-2.833V19.611
			c-0.025-0.364-0.041-1.852,1.207-3.243c1.417-1.58,3.87-2.381,7.293-2.381h280.477l57.704,27.514
			c0.427,0.25,8.527,5.171,8.527,12.653v16.66l-0.445,0.297c-11.374,7.583-28.614,19.135-29.493,19.883l-0.629-0.739l-0.058,0.021
			v1.003H132.202z"/>
		<path fill="#FEDD09" d="M298.667,14.987l57.5,27.417c0,0,7.958,4.75,7.958,11.75s0,16.125,0,16.125s-30,20-29.625,20
			c-0.365,0-201.833,0-201.833,0l-2-2.375l-85.917-1l-34-21.75v-10.75l-4.083-3V34.07l4.25-2.833V19.57c0,0-0.5-4.583,7.5-4.583
			S298.667,14.987,298.667,14.987 M334.5,90.279L334.5,90.279L334.5,90.279 M299.119,12.987h-0.452H18.417
			c-3.719,0-6.423,0.913-8.037,2.713c-1.444,1.61-1.49,3.372-1.463,3.929v10.538l-3.359,2.239L4.667,33v1.07v17.333v1.012l0.815,0.6
			l3.268,2.4v9.738v1.095l0.922,0.59l34,21.75l0.482,0.309l0.572,0.007l85.001,0.989l1.409,1.674l0.6,0.712h0.931H334.5v-4v2
			l1.882-0.669c0.308,0.87-0.048,1.742-0.558,2.155c1.106-0.896,18.194-12.345,29.41-19.822l0.891-0.594v-1.07V54.154
			c0-8.043-8.568-13.25-8.933-13.467l-0.08-0.048l-0.085-0.04l-57.5-27.417L299.119,12.987L299.119,12.987z"/>
	</g>
	<g>
		<defs>
			<path id="SVGID_1_" d="M44.75,86.904l-34-21.75v-10.75l-4.083-3V34.07l4.25-2.833V19.57c0,0-0.5-4.583,7.5-4.583
				s280.25,0,280.25,0l57.5,27.417c0,0,7.958,4.75,7.958,11.75s0,16.125,0,16.125s-30,20-29.625,20s-201.833,0-201.833,0l-2-2.375
				L44.75,86.904z"/>
		</defs>
		<clipPath id="SVGID_2_">
			<use xlink:href="#SVGID_1_"  overflow="visible"/>
		</clipPath>
		<path clip-path="url(#SVGID_2_)" fill="none" stroke="#FAA31B" stroke-width="3" stroke-miterlimit="10" d="M82.167,11.237
			c0,0-7.667,11.083-14.5,11.083s-44.042,0-44.042,0s-5,0.333-5,3.833s0,32.833,0,32.833s-0.124,4.667,4.792,7.667
			s22.416,12.25,22.416,12.25s2.168,1.417,12.584,1.417s115.917,0,115.917,0l15.167,19.084"/>
		<polyline clip-path="url(#SVGID_2_)" fill="none" stroke="#FAA31B" stroke-width="3" stroke-miterlimit="10" points="
			257.167,83.57 331.833,83.57 357.833,68.237 357.833,52.633 291.833,22.57 203.5,22.57 180.666,-0.263 		"/>
	</g>
	<text transform="matrix(1 0 0 1 73.834 64.2373)" fill="#FED607" font-family="'NeuropolXRg-Regular'" font-size="37.2991">Pause</text>
</g>
</svg>
