<?xml version="1.0" encoding="utf-8"?>
<!-- Generator: Adobe Illustrator 16.0.0, SVG Export Plug-In . SVG Version: 6.00 Build 0)  -->
<!DOCTYPE svg PUBLIC "-//W3C//DTD SVG 1.1//EN" "http://www.w3.org/Graphics/SVG/1.1/DTD/svg11.dtd">
<svg version="1.1" xmlns="http://www.w3.org/2000/svg" xmlns:xlink="http://www.w3.org/1999/xlink" x="0px" y="0px" width="502px"
	 height="188.898px" viewBox="0 0 502 188.898" enable-background="new 0 0 502 188.898" xml:space="preserve">
<g id="Layer_1" display="none">
	<g id="Layer_1_1_">
		
			<path display="inline" opacity="0.75" fill="#FFFFFF" stroke="#000000" stroke-width="6" stroke-miterlimit="10" enable-background="new    " d="
			M487.889,137.787c0,6.627-5.373,12-12,12h-538.5c-6.627,0-12-5.373-12-12V107.62c0-6.627,5.373-12,12-12h538.5
			c6.627,0,12,5.373,12,12V137.787z"/>
		
			<path display="inline" opacity="0.75" fill="#FFFFFF" stroke="#000000" stroke-width="6" stroke-miterlimit="10" enable-background="new    " d="
			M478.763,50.056c2.05,6.302-1.397,13.073-7.7,15.123L-41.032,231.738c-6.302,2.05-13.073-1.397-15.123-7.7l-9.331-28.687
			c-2.05-6.304,1.397-13.074,7.7-15.123l512.095-166.56c6.304-2.05,13.073,1.397,15.123,7.7L478.763,50.056z"/>
		<g display="inline">
			<g>
				<path fill="none" stroke="#74BF44" stroke-width="15" stroke-miterlimit="10" d="M-123.09,162.653
					c-12.408-32.927-17.906-83.064,33.201-126.631"/>
				<g>
					<path fill="#74BF44" d="M-103.778,198.522c-2.568-20.284-2.819-46.983,1.751-66.001l-23.082,25.15l-33.825,4.563
						C-140.715,169.354-118.949,184.819-103.778,198.522z"/>
				</g>
			</g>
		</g>
		<g display="inline">
			<g>
				<path fill="none" stroke="#74BF44" stroke-width="15" stroke-miterlimit="10" d="M541.199,71.891
					c12.408,32.927,17.906,83.063-33.201,126.631"/>
				<g>
					<path fill="#74BF44" d="M521.887,36.022c2.568,20.284,2.819,46.982-1.751,66.001l23.082-25.152l33.824-4.563
						C558.824,65.189,537.059,49.725,521.887,36.022z"/>
				</g>
			</g>
		</g>
	</g>
	<g id="Layer_2" display="inline">
		<path opacity="0.75" fill="#F5FBFE" stroke="#000000" stroke-width="15" stroke-miterlimit="10" enable-background="new    " d="
			M372,133.898c0,6.627-5.373,12-12,12H53c-6.627,0-12-5.373-12-12v-23c0-6.627,5.373-12,12-12h307c6.627,0,12,5.373,12,12V133.898z
			"/>
		<path opacity="0.75" fill="#F5FBFE" stroke="#000000" stroke-width="15" stroke-miterlimit="10" enable-background="new    " d="
			M364.058,68.962c1.313,6.496-2.89,12.827-9.385,14.14L53.755,143.908c-6.496,1.313-12.826-2.889-14.139-9.385l-4.556-22.544
			c-1.313-6.496,2.889-12.827,9.385-14.14l300.918-60.807c6.496-1.313,12.826,2.889,14.14,9.385L364.058,68.962z"/>
		<g>
			<g>
				<path fill="none" stroke="#74BF44" stroke-width="10" stroke-miterlimit="10" d="M404.787,62.509
					c7.913,19.947,10.896,49.534-15.787,81.639"/>
				<g>
					<path fill="#74BF44" d="M389,36.792c2.703,14.902,3.946,34.642,1.319,48.89l16.077-19.52l24.839-4.716
						C417.479,56.904,400.765,46.327,389,36.792z"/>
				</g>
			</g>
		</g>
		<g>
			<g>
				<path fill="none" stroke="#DA3A26" stroke-width="10" stroke-miterlimit="10" d="M458.145,118.431
					c7.912-19.947,10.896-49.534-15.787-81.639"/>
				<g>
					<path fill="#DA3A26" d="M442.355,144.147c11.771-9.532,28.481-20.109,42.239-24.652l-24.843-4.718L443.68,95.26
						C446.308,109.509,445.063,129.248,442.355,144.147z"/>
				</g>
			</g>
		</g>
	</g>
</g>
<g id="Layer_2_1_">
	<g>
		<path fill="#BBE5FF" d="M217.443,152.192c-0.498,0-0.993-0.106-1.453-0.316L53.713,77.814c-1.33-0.607-2.143-1.977-2.038-3.435
			c0.105-1.458,1.105-2.698,2.509-3.108l98.974-28.952c0.321-0.094,0.652-0.141,0.983-0.141c0.273,0,0.547,0.032,0.815,0.096
			l222.213,53.19c1.531,0.367,2.629,1.71,2.684,3.284c0.054,1.573-0.949,2.989-2.451,3.46L218.49,152.032
			C218.148,152.139,217.795,152.192,217.443,152.192z"/>
		<path d="M154.14,45.677l222.213,53.19l-158.911,49.824L55.166,74.63L154.14,45.677 M154.14,38.677
			c-0.663,0-1.324,0.094-1.965,0.281L53.201,67.911c-2.807,0.821-4.807,3.3-5.017,6.216c-0.21,2.917,1.416,5.656,4.076,6.87
			l162.277,74.063c0.92,0.42,1.912,0.632,2.906,0.632c0.705,0,1.411-0.106,2.094-0.32l158.91-49.824
			c3.005-0.942,5.011-3.774,4.902-6.921s-2.305-5.833-5.366-6.566L155.77,38.87C155.234,38.741,154.687,38.677,154.14,38.677
			L154.14,38.677z"/>
	</g>
	<g>
		<path d="M219.899,144.734c-0.433,0-0.865-0.094-1.267-0.28L57.266,69.27c-1.076-0.501-1.755-1.59-1.732-2.777
			s0.743-2.249,1.838-2.708l89.772-37.705c0.369-0.155,0.764-0.234,1.162-0.234c0.158,0,0.316,0.012,0.473,0.038l228.047,36.406
			c1.292,0.206,2.302,1.226,2.494,2.52c0.193,1.294-0.474,2.563-1.649,3.138l-156.455,76.482
			C220.801,144.633,220.35,144.734,219.899,144.734z"/>
		<path d="M148.306,28.845l228.048,36.406l-156.455,76.482L58.533,66.551L148.306,28.845 M148.306,22.845
			c-0.795,0-1.585,0.158-2.323,0.468L56.21,61.019c-2.189,0.919-3.63,3.043-3.676,5.417c-0.045,2.374,1.313,4.551,3.465,5.554
			l161.366,75.184c0.804,0.375,1.669,0.562,2.534,0.562c0.902,0,1.804-0.203,2.635-0.609l156.454-76.483
			c2.351-1.149,3.686-3.688,3.3-6.276c-0.387-2.588-2.405-4.627-4.988-5.039L149.251,22.921
			C148.938,22.87,148.621,22.845,148.306,22.845L148.306,22.845z"/>
	</g>
	<g>
		<g>
			<path fill="none" stroke="#74BF44" stroke-width="6" stroke-miterlimit="10" d="M301.943,32.268
				c1.837,13.301-0.031,30.851-18.756,40.341"/>
			<g>
				<polygon fill="#74BF44" points="297.102,14.706 293.323,42.177 301.969,33.67 313.64,36.963 				"/>
			</g>
		</g>
	</g>
	<g>
		<g>
			<path fill="none" stroke="#F4470B" stroke-width="6" stroke-miterlimit="10" d="M261.152,55.053
				c1.838-13.301-0.031-30.852-18.755-40.341"/>
			<g>
				<polygon fill="#F4470B" points="256.312,72.615 272.852,50.359 261.178,53.652 252.535,45.145 				"/>
			</g>
		</g>
	</g>
	<g opacity="0.75">
		<path fill="#C0DDF9" d="M219.899,138.347c-0.286,0-0.572-0.062-0.838-0.185L57.695,63.654c-0.72-0.333-1.175-1.058-1.161-1.851
			c0.014-0.792,0.494-1.502,1.225-1.809l89.772-37.705c0.246-0.104,0.51-0.156,0.774-0.156c0.109,0,0.218,0.009,0.327,0.027
			L376.68,59.912c0.862,0.143,1.532,0.829,1.654,1.694s-0.332,1.709-1.121,2.085l-156.455,74.462
			C220.487,138.283,220.193,138.347,219.899,138.347z"/>
		<path d="M148.306,24.133l228.048,37.753l-156.455,74.462L58.533,61.838L148.306,24.133 M148.306,20.133
			c-0.53,0-1.057,0.105-1.549,0.312L56.984,58.15c-1.462,0.614-2.423,2.033-2.451,3.618s0.883,3.037,2.323,3.701l161.366,74.51
			c0.532,0.245,1.104,0.368,1.677,0.368c0.588,0,1.175-0.13,1.719-0.389l156.454-74.461c1.578-0.751,2.486-2.44,2.242-4.17
			s-1.583-3.102-3.308-3.388L148.959,20.186C148.742,20.151,148.523,20.133,148.306,20.133L148.306,20.133z"/>
	</g>
	
		<line fill="none" stroke="#0CF2E7" stroke-width="6" stroke-miterlimit="10" stroke-dasharray="11" x1="24.167" y1="58.282" x2="283.188" y2="172.283"/>
</g>
</svg>
