<?xml version="1.0" encoding="utf-8"?>
<!-- Generator: Adobe Illustrator 16.0.0, SVG Export Plug-In . SVG Version: 6.00 Build 0)  -->
<!DOCTYPE svg PUBLIC "-//W3C//DTD SVG 1.1//EN" "http://www.w3.org/Graphics/SVG/1.1/DTD/svg11.dtd">
<svg version="1.1" xmlns="http://www.w3.org/2000/svg" xmlns:xlink="http://www.w3.org/1999/xlink" x="0px" y="0px" width="418px"
	 height="167.333px" viewBox="0 0 418 167.333" enable-background="new 0 0 418 167.333" xml:space="preserve">
<g id="Layer_1" display="none">
	<path display="inline" opacity="0.75" fill="#FFFFFF" stroke="#000000" stroke-width="6" stroke-miterlimit="10" d="
		M472.889,123.555c0,6.627-5.373,12-12,12h-538.5c-6.627,0-12-5.373-12-12V93.389c0-6.627,5.373-12,12-12h538.5
		c6.627,0,12,5.373,12,12V123.555z"/>
	<path display="inline" opacity="0.75" fill="#FFFFFF" stroke="#000000" stroke-width="6" stroke-miterlimit="10" d="
		M463.763,35.824c2.05,6.302-1.398,13.074-7.7,15.123L-56.032,217.506c-6.302,2.05-13.073-1.397-15.123-7.7l-9.331-28.687
		c-2.05-6.303,1.397-13.074,7.7-15.123L439.309-0.563c6.303-2.05,13.073,1.397,15.123,7.7L463.763,35.824z"/>
	<g display="inline">
		<g>
			<path fill="none" stroke="#74BF44" stroke-width="15" stroke-miterlimit="10" d="M-138.09,148.421
				c-12.408-32.927-17.906-83.064,33.201-126.631"/>
			<g>
				<path fill="#74BF44" d="M-118.778,184.29c-2.568-20.284-2.819-46.983,1.751-66.001l-23.082,25.151l-33.825,4.563
					C-155.715,155.122-133.949,170.587-118.778,184.29z"/>
			</g>
		</g>
	</g>
	<g display="inline">
		<g>
			<path fill="none" stroke="#74BF44" stroke-width="15" stroke-miterlimit="10" d="M526.199,57.659
				c12.408,32.927,17.906,83.064-33.201,126.631"/>
			<g>
				<path fill="#74BF44" d="M506.887,21.79c2.568,20.284,2.819,46.983-1.751,66.001l23.082-25.152l33.824-4.563
					C543.824,50.958,522.059,35.493,506.887,21.79z"/>
			</g>
		</g>
	</g>
</g>
<g id="Layer_2" display="none">
	<path display="inline" opacity="0.75" fill="#F5FBFE" stroke="#000000" stroke-width="15" stroke-miterlimit="10" d="M357,119.667
		c0,6.627-5.373,12-12,12H38c-6.627,0-12-5.373-12-12v-23c0-6.627,5.373-12,12-12h307c6.627,0,12,5.373,12,12V119.667z"/>
	<path display="inline" opacity="0.75" fill="#F5FBFE" stroke="#000000" stroke-width="15" stroke-miterlimit="10" d="
		M349.058,54.73c1.313,6.496-2.89,12.827-9.385,14.139L38.755,129.676c-6.496,1.313-12.826-2.889-14.139-9.385l-4.556-22.544
		c-1.313-6.496,2.889-12.827,9.385-14.139L330.363,22.8c6.496-1.313,12.826,2.889,14.14,9.385L349.058,54.73z"/>
	<g display="inline">
		<g>
			<path fill="none" stroke="#74BF44" stroke-width="10" stroke-miterlimit="10" d="M389.787,48.277
				C397.7,68.224,400.684,97.811,374,129.916"/>
			<g>
				<path fill="#74BF44" d="M374,22.561c2.703,14.902,3.946,34.641,1.319,48.889l16.077-19.519l24.839-4.716
					C402.478,42.672,385.765,32.095,374,22.561z"/>
			</g>
		</g>
	</g>
	<g display="inline">
		<g>
			<path fill="none" stroke="#DA3A26" stroke-width="10" stroke-miterlimit="10" d="M443.144,104.199
				c7.913-19.947,10.896-49.534-15.787-81.638"/>
			<g>
				<path fill="#DA3A26" d="M427.356,129.916c11.77-9.532,28.481-20.109,42.239-24.652l-24.843-4.718l-16.072-19.516
					C431.308,95.277,430.063,115.016,427.356,129.916z"/>
			</g>
		</g>
	</g>
</g>
<g id="Layer_3">
	<path fill="#D3E7F8" stroke="#000000" stroke-width="10" stroke-miterlimit="10" d="M358.709,150.784
		c0,6.01-4.873,10.882-10.883,10.882H64.882c-6.01,0-10.882-4.872-10.882-10.882V18.381c0-6.01,4.872-10.883,10.882-10.883h282.944
		c6.01,0,10.883,4.873,10.883,10.883V150.784z"/>
	<g>
		<rect x="63.295" y="71.206" fill="#4378BC" width="4.194" height="24.032"/>
		<rect x="70.701" y="71.206" fill="#4378BC" width="6.197" height="24.032"/>
		<rect x="80.904" y="71.206" fill="#4378BC" width="8.389" height="24.032"/>
		<rect x="92.996" y="71.206" fill="#4378BC" width="16.777" height="24.032"/>
		<polygon fill="#4378BC" points="116.272,71.206 116.272,95.238 127.155,83.222 		"/>
	</g>
	<g>
		<rect x="346.126" y="71.206" fill="#4378BC" width="4.194" height="24.032"/>
		<rect x="336.718" y="71.206" fill="#4378BC" width="6.197" height="24.032"/>
		<rect x="324.324" y="71.206" fill="#4378BC" width="8.389" height="24.032"/>
		<rect x="303.844" y="71.206" fill="#4378BC" width="16.776" height="24.032"/>
		<polygon fill="#4378BC" points="297.344,71.206 297.344,95.238 286.461,83.222 		"/>
	</g>
</g>
</svg>
