<?xml version="1.0" encoding="utf-8"?>
<!-- Generator: Adobe Illustrator 16.0.0, SVG Export Plug-In . SVG Version: 6.00 Build 0)  -->
<!DOCTYPE svg PUBLIC "-//W3C//DTD SVG 1.1//EN" "http://www.w3.org/Graphics/SVG/1.1/DTD/svg11.dtd">
<svg version="1.1" xmlns="http://www.w3.org/2000/svg" xmlns:xlink="http://www.w3.org/1999/xlink" x="0px" y="0px" width="864px"
	 height="864px" viewBox="0 0 864 864" enable-background="new 0 0 864 864" xml:space="preserve">
<g id="Layer_1">
</g>
<g id="Layer_2">
	<g>
		<path fill="#FFFFFF" stroke="#99C3E8" stroke-miterlimit="10" d="M146.912,396.163c-15.774,0-23.66-8.647-23.66-25.945v-60.759
			c0-3.707,1.426-5.56,4.28-5.56c2.96,0,4.441,1.853,4.441,5.56v60.362c0,10.325,5.114,15.487,15.343,15.487h33.431
			c2.691,0,4.038,1.81,4.038,5.427c0,3.62-1.346,5.428-4.038,5.428H146.912z"/>
		<path fill="#FFFFFF" stroke="#99C3E8" stroke-miterlimit="10" d="M205.618,315.416c0,4.236-1.562,6.354-4.684,6.354
			c-3.123,0-4.684-2.118-4.684-6.354s1.561-6.354,4.684-6.354C204.056,309.062,205.618,311.18,205.618,315.416z M196.655,336.728
			c0-3.707,1.425-5.56,4.28-5.56c2.853,0,4.28,1.854,4.28,5.56v54.538c0,3.706-1.427,5.56-4.28,5.56c-2.854,0-4.28-1.854-4.28-5.56
			V336.728z"/>
		<path fill="#FFFFFF" stroke="#99C3E8" stroke-miterlimit="10" d="M246.396,418.401c-2.692,0-4.038-1.721-4.038-5.162
			s1.345-5.163,4.038-5.163h12.194c7.429,0,11.144-3.09,11.144-9.266v-4.633h-28.505c-13.943,0-20.915-6.971-20.915-20.915v-20.385
			c0-14.032,6.971-21.047,20.915-21.047h16.15c13.942,0,20.915,7.016,20.915,21.047v45.8c0,13.148-6.569,19.724-19.704,19.724
			H246.396z M228.954,374.983c0,6.002,3.822,9.001,11.467,9.001h29.313v-31.372c0-6.618-3.823-9.928-11.467-9.928h-17.846
			c-7.645,0-11.467,3.31-11.467,9.928V374.983z"/>
		<path fill="#FFFFFF" stroke="#99C3E8" stroke-miterlimit="10" d="M342.975,352.612c0-6.618-3.795-9.928-11.386-9.928h-29.313
			v48.581c0,3.706-1.427,5.56-4.28,5.56c-2.854,0-4.28-1.854-4.28-5.56v-83.66c0-3.707,1.425-5.56,4.28-5.56
			c2.853,0,4.28,1.853,4.28,5.56v24.224h28.505c13.889,0,20.834,7.016,20.834,21.047v38.388c0,3.706-1.427,5.56-4.28,5.56
			c-2.907,0-4.361-1.854-4.361-5.56V352.612z"/>
		<path fill="#FFFFFF" stroke="#99C3E8" stroke-miterlimit="10" d="M378.587,342.685v48.581c0,3.706-1.4,5.56-4.199,5.56
			c-2.907,0-4.361-1.854-4.361-5.56v-48.581h-3.311c-2.638,0-3.957-1.721-3.957-5.163c0-3.441,1.319-5.163,3.957-5.163h3.311
			v-12.178c0-3.707,1.399-5.56,4.199-5.56c2.907,0,4.36,1.853,4.36,5.56v12.178h13.89c2.691,0,4.038,1.721,4.038,5.163
			c0,3.442-1.347,5.163-4.038,5.163H378.587z"/>
		<path fill="#FFFFFF" stroke="#99C3E8" stroke-miterlimit="10" d="M461.115,381.337c0,9.885-6.137,14.826-18.411,14.826h-31.493
			c-2.693,0-4.038-1.721-4.038-5.162c0-3.442,1.345-5.163,4.038-5.163h31.493c6.621,0,9.933-1.499,9.933-4.501v-7.412
			c0-2.999-3.312-4.501-9.933-4.501h-16.636c-12.273,0-18.411-4.809-18.411-14.429v-6.221c0-11.295,6.325-16.944,18.977-16.944
			h11.063c2.745,0,4.118,1.766,4.118,5.295c0,1.766-0.363,3.067-1.09,3.905c-0.727,0.84-1.736,1.258-3.028,1.258h-11.063
			c-7.053,0-10.578,2.164-10.578,6.486v5.824c0,3.62,3.499,5.427,10.498,5.427h16.635c11.951,0,17.927,4.501,17.927,13.502V381.337z
			"/>
		<path fill="#FFFFFF" stroke="#99C3E8" stroke-miterlimit="10" d="M483.645,396.163v17.474c0,3.706-1.427,5.56-4.28,5.56
			s-4.279-1.854-4.279-5.56v-60.759c0-14.032,6.944-21.047,20.834-21.047h16.231c13.889,0,20.834,7.016,20.834,21.047v22.371
			c0,13.944-6.945,20.915-20.834,20.915H483.645z M483.645,385.44h28.748c7.967,0,11.951-3.353,11.951-10.06v-22.636
			c0-6.706-3.984-10.061-11.951-10.061h-16.797c-7.968,0-11.951,3.355-11.951,10.061V385.44z"/>
		<path fill="#FFFFFF" stroke="#99C3E8" stroke-miterlimit="10" d="M556.24,368.365v8.074c0,6.268,3.741,9.398,11.225,9.398h11.951
			c2.691,0,4.038,1.721,4.038,5.163c0,3.441-1.347,5.162-4.038,5.162h-11.951c-13.136,0-19.703-6.529-19.703-19.591v-25.945
			c0-12.53,5.867-18.797,17.604-18.797h23.338c11.467,0,17.2,5.648,17.2,16.944V363.6c0,3.177-1.239,4.766-3.715,4.766H556.24z
			 M556.24,359.231h40.538c0.43,0,0.646-0.308,0.646-0.926v-6.883c0-6.089-3.123-9.134-9.367-9.134H565.85
			c-6.407,0-9.609,3.044-9.609,9.134V359.231z"/>
		<path fill="#FFFFFF" stroke="#99C3E8" stroke-miterlimit="10" d="M627.463,368.365v8.074c0,6.268,3.741,9.398,11.225,9.398h11.951
			c2.691,0,4.038,1.721,4.038,5.163c0,3.441-1.347,5.162-4.038,5.162h-11.951c-13.136,0-19.703-6.529-19.703-19.591v-25.945
			c0-12.53,5.867-18.797,17.604-18.797h23.338c11.467,0,17.2,5.648,17.2,16.944V363.6c0,3.177-1.239,4.766-3.715,4.766H627.463z
			 M627.463,359.231h40.538c0.43,0,0.646-0.308,0.646-0.926v-6.883c0-6.089-3.123-9.134-9.367-9.134h-22.207
			c-6.407,0-9.609,3.044-9.609,9.134V359.231z"/>
		<path fill="#FFFFFF" stroke="#99C3E8" stroke-miterlimit="10" d="M711.363,396.163c-13.89,0-20.834-6.971-20.834-20.915v-22.371
			c0-14.032,6.944-21.047,20.834-21.047h28.505v-24.224c0-3.707,1.454-5.56,4.36-5.56c2.854,0,4.28,1.853,4.28,5.56v67.642
			c0,13.944-6.944,20.915-20.834,20.915H711.363z M727.917,385.44c7.967,0,11.951-3.353,11.951-10.06v-32.696h-28.747
			c-7.969,0-11.952,3.355-11.952,10.061v22.636c0,6.707,3.983,10.06,11.952,10.06H727.917z"/>
		<path fill="#FFFFFF" stroke="#99C3E8" stroke-miterlimit="10" d="M246.237,519.137v30.976c0,3.706-1.481,5.56-4.441,5.56
			c-2.854,0-4.28-1.854-4.28-5.56v-82.071c0-3.088,1.238-4.633,3.714-4.633h37.954c16.742,0,25.114,7.502,25.114,22.503v9.796
			c0,14.738-8.372,22.106-25.114,22.106h-19.3l37.469,27.004c1.615,1.147,2.423,2.868,2.423,5.162c0,1.767-0.391,3.156-1.171,4.17
			c-0.781,1.014-1.871,1.522-3.271,1.522c-0.593,0-1.09-0.089-1.494-0.265c-0.404-0.178-0.929-0.53-1.575-1.06L246.237,519.137z
			 M246.237,507.753h33.189c10.767,0,16.15-4.015,16.15-12.046v-9.531c0-7.942-5.357-11.913-16.07-11.913h-32.624
			c-0.432,0-0.646,0.311-0.646,0.927V507.753z"/>
		<path fill="#FFFFFF" stroke="#99C3E8" stroke-miterlimit="10" d="M339.101,555.01c-13.89,0-20.834-6.971-20.834-20.915v-38.521
			c0-3.706,1.426-5.56,4.28-5.56c2.853,0,4.28,1.854,4.28,5.56v38.653c0,6.707,3.983,10.06,11.951,10.06h15.343
			c7.966,0,11.951-3.353,11.951-10.06v-38.653c0-3.706,1.426-5.56,4.28-5.56c2.907,0,4.361,1.854,4.361,5.56v38.521
			c0,13.944-6.945,20.915-20.834,20.915H339.101z"/>
		<path fill="#FFFFFF" stroke="#99C3E8" stroke-miterlimit="10" d="M438.587,511.724c0-6.794-4.011-10.192-12.032-10.192h-16.15
			c-7.968,0-11.951,3.398-11.951,10.192v38.389c0,3.706-1.427,5.56-4.28,5.56s-4.279-1.854-4.279-5.56v-38.389
			c0-14.031,6.944-21.047,20.834-21.047h15.585c13.89,0,20.834,7.016,20.834,21.047v38.389c0,3.706-1.427,5.56-4.279,5.56
			c-2.854,0-4.28-1.854-4.28-5.56V511.724z"/>
		<path fill="#FFFFFF" stroke="#99C3E8" stroke-miterlimit="10" d="M511.021,511.724c0-6.794-4.011-10.192-12.032-10.192h-16.15
			c-7.968,0-11.951,3.398-11.951,10.192v38.389c0,3.706-1.427,5.56-4.28,5.56s-4.279-1.854-4.279-5.56v-38.389
			c0-14.031,6.944-21.047,20.834-21.047h15.585c13.89,0,20.834,7.016,20.834,21.047v38.389c0,3.706-1.427,5.56-4.279,5.56
			c-2.854,0-4.28-1.854-4.28-5.56V511.724z"/>
		<path fill="#FFFFFF" stroke="#99C3E8" stroke-miterlimit="10" d="M542.997,527.212v8.074c0,6.268,3.741,9.398,11.225,9.398h11.951
			c2.691,0,4.038,1.721,4.038,5.163c0,3.441-1.347,5.162-4.038,5.162h-11.951c-13.136,0-19.703-6.529-19.703-19.591v-25.945
			c0-12.53,5.867-18.797,17.604-18.797h23.338c11.467,0,17.2,5.648,17.2,16.943v14.826c0,3.177-1.239,4.766-3.715,4.766H542.997z
			 M542.997,518.078h40.538c0.43,0,0.646-0.309,0.646-0.927v-6.884c0-6.089-3.123-9.134-9.367-9.134h-22.207
			c-6.407,0-9.609,3.045-9.609,9.134V518.078z"/>
		<path fill="#FFFFFF" stroke="#99C3E8" stroke-miterlimit="10" d="M605.983,511.724c0-14.031,6.944-21.047,20.834-21.047h6.218
			c2.746,0,4.118,1.81,4.118,5.428c0,3.619-1.372,5.427-4.118,5.427h-6.541c-7.968,0-11.951,3.31-11.951,9.928v38.653
			c0,3.706-1.427,5.56-4.28,5.56s-4.279-1.854-4.279-5.56V511.724z"/>
	</g>
</g>
<g id="Layer_3" display="none">
	
		<image display="inline" overflow="visible" width="620" height="285" xlink:href="23F0B66B.jpg"  transform="matrix(3.7345 0 0 3.7345 -750.5303 -200.3398)">
	</image>
</g>
<g id="Layer_4" display="none">
	<g display="inline">
		
			<image overflow="visible" width="347" height="998" xlink:href="23F0B669.png"  transform="matrix(0.24 0 0 0.24 -430.7026 -222.3765)">
		</image>
		<g>
			<g>
				<path fill="#B9DCF4" d="M-390.077-198.998c-2.108,8.076-6.883,15.594-10,23.333c-3.219,7.993-5.257,16.323-7.333,24.667
					c-1.681,6.752-2.689,14.745-0.181,21.463c3.082,8.256,7.083,16.275,11.026,24.146c3.993,7.971,7.708,16.064,11.571,24.096
					c3.799,7.899,5.237,15.887,7.914,24.08c1.342,4.108,2.726,8.153,3.166,12.479c0.445,4.371-1.374,8.444-2.746,12.487
					c-2.797,8.246-2.462,16.682-1.506,25.248c0.354,3.167,5.357,3.202,5,0c-0.988-8.854-0.997-17.07,1.884-25.56
					c2.556-7.532,2.8-13.475,0.585-21.155c-2.148-7.445-3.771-15.158-6.582-22.395c-3.09-7.957-7.104-15.671-10.786-23.368
					c-3.949-8.255-8.337-16.291-11.854-24.749c-1.732-4.166-3.913-8.186-3.913-12.774c0-4.266-0.388-8.643,1.244-12.669
					c1.544-3.81,2.075-8.357,3.167-12.333c1.262-4.593,2.787-9.106,4.665-13.485c3.125-7.285,7.495-14.496,9.502-22.182
					C-384.44-200.792-389.263-202.116-390.077-198.998L-390.077-198.998z"/>
			</g>
		</g>
	</g>
	<g display="inline">
		
			<image overflow="visible" width="764" height="1695" xlink:href="23F0B66F.png"  transform="matrix(0.24 0 0 0.24 -362.8979 -214.3516)">
		</image>
		<g>
			<g>
				<path fill="#B9DCF4" d="M-206.167-190.333c-0.162,16.061-5.376,29.766-12.388,43.991c-6.914,14.026-15.198,27.015-24.063,39.863
					c-8.771,12.713-18.301,25.062-29.114,36.08c-4.59,4.678-9.42,9.393-13.027,14.896c-4.212,6.426-7.675,13.339-10.886,20.307
					c-2.858,6.204-4.465,12.827-7.268,19.046c-3.219,7.144-8.848,11.711-14.867,16.395c-5.259,4.092-10.226,8.935-14.913,13.669
					c-4.301,4.344-6.627,8.894-7.797,14.861c-2.557,13.054,1.36,24.62,6.084,36.699c2.535,6.483,5.385,12.913,7.563,19.523
					c2.582,7.836,2.184,16.291,0.606,24.267c-1.968,9.95-4.272,19.104-4.558,29.337c-0.126,4.515-0.039,9.042-0.039,13.559
					c0,5.009,0.922,10.689-0.578,15.508c-0.961,3.087,3.866,4.397,4.821,1.329c1.809-5.81,0.756-12.484,0.756-18.498
					c0-7.687-0.064-15.346,0.771-22.999c0.812-7.44,3.411-14.517,4.52-21.912c1.01-6.743,0.624-13.638-0.995-20.253
					c-1.647-6.731-4.974-13.18-7.445-19.64c-2.596-6.787-5.344-13.462-6.841-20.601c-1.33-6.343-0.592-12.815,1.086-19.011
					c1.915-7.072,9.141-11.963,14.232-16.741c4.778-4.483,10.235-8.177,14.899-12.769c4.74-4.667,7.521-10.797,9.732-16.959
					c5.166-14.394,11.185-28.657,21.592-40.128c4.761-5.248,9.917-10.121,14.692-15.357c4.983-5.465,9.145-11.798,13.633-17.676
					c9.425-12.344,18.182-25.21,25.721-38.795c10.108-18.212,18.854-36.801,19.067-57.992
					C-201.134-193.559-206.134-193.556-206.167-190.333L-206.167-190.333z"/>
			</g>
		</g>
	</g>
	<g display="inline">
		<g>
			<path fill="#B9DCF4" d="M-285.141-34.654c-7.527,8.89-9.607,19.921-10.012,31.279c-0.206,5.792,0.094,11.599,0.23,17.39
				c0.154,6.548-0.229,13.165,0.787,19.664c0.924,5.908,2.993,10.6,5.979,15.711c3.332,5.701,5.25,12.089,1.856,18.217
				c-1.351,2.439-3.682,3.999-5.232,6.24c-1.629,2.355-3.402,4.604-5.062,6.937c-4.157,5.841-4.714,11.491-4.53,18.517
				c0.184,7.024,1.453,14.003,2.363,20.956c0.98,7.492,0.929,14.968,0.84,22.508c-0.08,6.845-0.479,13.665-1.228,20.469
				c-0.708,6.428-2.454,12.554-1.563,19.134c0.815,6.023,4.158,10.328,7.006,15.497c3.71,6.733,5.255,14.275,5.373,21.9
				c0.094,6.127-0.916,12.248-1.717,18.3c-0.458,3.453-0.339,6.965-0.608,10.435c-0.292,3.779-0.752,7.706,0.008,11.464
				c0.122,0.6,0.243,1.2,0.365,1.8c0.64,3.159,5.459,1.818,4.821-1.329c-1.419-7.009-0.329-15.288,0.414-22.37
				c0.642-6.125,1.638-12.114,1.717-18.3c0.077-6.064-1.076-12.106-3.089-17.807c-2.096-5.933-6.242-10.693-8.495-16.497
				c-2.175-5.603-1.187-14.072,0.454-19.692c1.742-5.965,1.301-13.472,1.478-19.653c0.197-6.903,0.339-13.88-0.214-20.767
				c-0.557-6.925-1.862-13.775-2.563-20.686c-0.781-7.703-0.947-14.724,3.485-21.355c3.112-4.656,7.27-8.491,10.294-13.177
				c5.772-8.945,0.772-18.643-3.853-26.699c-6.221-10.835-4.023-25.928-4.311-37.986c-0.3-12.603-0.023-26.448,8.541-36.564
				C-279.536-33.563-283.055-37.118-285.141-34.654L-285.141-34.654z"/>
		</g>
	</g>
	<g display="inline">
		
			<image overflow="visible" width="376" height="1413" xlink:href="23F0B668.png"  transform="matrix(0.24 0 0 0.24 -284.9092 246.0767)">
		</image>
		<g>
			<g>
				<path fill="#B9DCF4" d="M-254.034,268.837c-4.99,7.75-1.18,17.432,2.538,24.87c4.534,9.073,11.24,16.242,17.149,24.338
					c4.666,6.394,1.725,12.867-3.022,18.086c-4.612,5.071-9.176,10.034-13.649,15.259c-8.263,9.652-13.383,19.38-12.093,32.42
					c0.599,6.051,2.31,11.99,4.253,17.728c0.736,2.174,1.298,4.404,2.94,6.047c1.992,1.992,4.703,3.887,5.498,6.655
					c0.826,2.875,0.514,6.151,0.587,9.108c0.073,2.936,0.694,5.884,1.342,8.734c1.792,7.89,3.036,15.126,3.108,23.264
					c0.112,12.608-1.517,25.809,2.744,37.943c2.125,6.052,6.09,11.323,8.393,17.319c2.314,6.022,2.27,12.709,4.963,18.604
					c4.438,9.712,7.708,21.201,7.905,31.871c0.06,3.221,5.06,3.227,5,0c-0.257-13.914-6.415-25.531-9.888-38.636
					c-1.509-5.695-2.259-11.246-4.612-16.718c-2.857-6.644-6.986-12.351-8.562-19.521c-2.963-13.485-0.219-27.983-1.381-41.675
					c-0.565-6.653-3.092-12.89-3.888-19.5c-0.521-4.333,1.076-12.234-2.4-15.71c-1.758-1.758-3.516-3.516-5.273-5.274
					c-1.8-1.8-2.406-6.055-3.127-8.42c-1.99-6.53-3.264-13.237-2.645-20.07c0.697-7.678,4.744-13.565,9.546-19.308
					c4.464-5.339,8.854-10.633,13.776-15.546c7.645-7.631,10.908-17.563,3.654-26.725c-6.367-8.041-12.686-15.754-17.123-25.097
					c-2.487-5.236-4.831-12.22-1.417-17.523C-247.965,268.641-252.295,266.136-254.034,268.837L-254.034,268.837z"/>
			</g>
		</g>
	</g>
	<g display="inline">
		
			<image overflow="visible" width="914" height="1663" xlink:href="23F0B66B.png"  transform="matrix(0.24 0 0 0.24 -274.4009 330.0767)">
		</image>
		<g>
			<g>
				<path fill="#B9DCF4" d="M-233.376,354.095c0.104,10.956,3.011,23.995-3.394,33.744c-5.145,7.829-17.396,12.903-15.906,24.002
					c1.241,9.245,10.674,14.745,17.872,19.161c4.218,2.587,8.118,5.238,12.606,7.354c6.624,3.124,13.412,6.108,17.544,12.434
					c6.652,10.182,6.021,24.257,8.115,35.776c2.296,12.627,9.975,22.64,20.229,30.099c3.483,2.533,7.293,4.646,10.97,6.887
					c2.125,1.296,4.106,2.731,5.826,4.537c2.809,2.951-1.897,5.836-3.603,7.87c-2.821,3.366-4.561,10.157-4.048,14.41
					c0.533,4.424,3.051,7.811,6.717,10.18c5.914,3.821,14.336,2.862,19.578,7.937c3.257,3.153-0.47,10.717-1.87,13.966
					c-1.946,4.515-4.564,8.743-7.08,12.954c-4.173,6.987-8.263,13.712-8.707,22.021c-0.334,6.256,2.319,12.387,6.094,17.234
					c8.304,10.666,20.787,16.81,30.094,26.441c3.729,3.86,6.255,9.256,9.156,13.74c2.583,3.993,5.488,7.747,8.737,11.218
					c7.118,7.605,15.862,13.502,23.293,20.786c2.303,2.258,5.841-1.275,3.535-3.535c-10.16-9.959-22.016-17.661-30.246-29.493
					c-3.695-5.312-6.533-11.474-10.94-16.251c-3.09-3.35-6.752-6.186-10.351-8.959c-7.542-5.813-15.917-11.396-21.123-19.565
					c-6.881-10.797-1.023-21.397,4.776-31.112c4.871-8.16,14.023-21.063,9.612-30.995c-3.862-8.698-17.891-6.534-24.063-12.277
					c-4.181-3.891-1.719-13.19,1.796-16.72c2.706-2.716,6.241-6.282,4.15-10.459c-4.026-8.042-15.08-11.244-21.762-16.648
					c-7.837-6.338-13.318-14.188-15.624-24.013c-1.188-5.06-1.559-10.301-2.108-15.456c-0.45-4.223-1.601-8.221-2.642-12.332
					c-1.525-6.024-4.198-13.296-9.475-17.097c-7.142-5.146-15.499-8.017-22.797-12.835c-5.772-3.811-12.041-6.886-16.647-12.192
					c-6.953-8.007,1.687-15.41,7.42-20.732c12.355-11.469,9.407-26.821,9.263-42.078
					C-228.407,350.872-233.407,350.869-233.376,354.095L-233.376,354.095z"/>
			</g>
		</g>
	</g>
	<g display="inline">
		
			<image overflow="visible" width="475" height="1582" xlink:href="23F0B667.png"  transform="matrix(0.24 0 0 0.24 -14.5273 269.9614)">
		</image>
		<g>
			<g>
				<path fill="#B9DCF4" d="M77.519,624.916c-2.604-6.211-4.725-12.604-7.084-18.908c-2.494-6.663-5.85-12.823-8.855-19.248
					c-5.876-12.562-10.274-26.017-20.251-35.993c-4.777-4.776-9.071-9.367-14.844-12.896c-2.957-1.808-5.818-3.695-8.45-5.958
					c-3.072-2.642-7.459-5.119-5.193-9.712c1.411-2.858,4.372-4.459,6.354-6.816c1.747-2.078,3.882-3.844,5.949-5.588
					c4.745-4.004,9.744-7.654,13.621-12.563c7.01-8.879,4.874-22.898,1.227-32.675c-4.106-11.009-10.666-22.353-7.278-34.468
					c3.397-12.151,14.954-19.451,22.222-29.015c7.081-9.319,4.674-23.063,4.674-33.927c0-5.498-4.472-8.427-7.158-12.58
					c-4.637-7.169-6.731-14.676-7.443-23.111c-1.082-12.815,2.138-26.775-3.74-38.623c-1.433-2.889-5.745-0.355-4.317,2.523
					c3.124,6.296,2.659,12.458,2.659,19.313c0,7.414,0.067,14.782,0.944,22.153c0.75,6.311,2.98,11.974,5.972,17.545
					c2.991,5.568,8.083,8.57,8.083,15.395c0,6.727,1.001,14.367-0.521,20.94c-1.441,6.223-5.415,10.272-9.792,14.67
					c-7.681,7.718-16.166,16.849-17.417,28.19c-1.303,11.813,4.483,21.608,8.292,32.322c2.291,6.443,3.151,11.852,2.752,18.699
					c-0.457,7.84-5.019,12.279-10.706,17.078c-4.256,3.592-8.769,6.866-12.373,11.153c-3.441,4.093-7.644,6.406-7.77,12.354
					c-0.107,5.113,5.291,8.44,8.63,11.312c5.35,4.6,11.654,7.383,16.688,12.417c5.472,5.473,10.453,10.472,14.191,17.311
					c3.52,6.439,6.288,13.282,9.271,19.978c2.935,6.585,6.484,12.832,9.143,19.544c2.691,6.792,4.873,13.77,7.7,20.512
					C73.925,629.173,78.766,627.889,77.519,624.916L77.519,624.916z"/>
			</g>
		</g>
	</g>
	<g display="inline">
		
			<image overflow="visible" width="1013" height="1201" xlink:href="23F0B677.png"  transform="matrix(0.24 0 0 0.24 -188.9414 259.4321)">
		</image>
		<g>
			<g>
				<path fill="#B9DCF4" d="M29.446,281.188c-11.308,3.994-20.103,11.823-27.918,20.701c-8.585,9.753-16.375,20.201-24.875,30.043
					c-9.165,10.612-18.621,21.017-30.432,28.75c-5.522,3.615-11.829,6.161-17.7,9.163c-6.591,3.37-13.03,7.014-19.192,11.122
					c-4.669,3.113-10.297,6.706-13.584,11.33c-3.138,4.414-4.522,9.368-5.076,14.705c-0.53,5.114,0.271,10.405,1.517,15.358
					c1.464,5.822,3.231,12.058,5.648,17.556c2.558,5.817,5.528,10.314,10.464,14.302c3.98,3.214,9.101,7.308,10.675,12.4
					c1.591,5.148-13.38,8.088-16.296,8.804c-4.761,1.167-9.626,1.945-14.342,3.289c-7.743,2.207-14.572,8.014-20.804,12.863
					c-7.04,5.479-14.488,9.763-21.795,14.794c-5.832,4.015-11.649,9.303-13.026,16.554c-0.598,3.151,4.22,4.495,4.821,1.33
					c2.006-10.563,14.515-16.056,22.85-21.005c10.556-6.269,18.719-17.064,31.059-20.19c7.217-1.828,14.583-2.927,21.612-5.47
					c4.812-1.741,11.429-4.952,10.946-11.05c-0.25-3.16-2.821-6.43-4.695-8.787c-4.296-5.406-10.567-8.504-14.213-14.47
					c-3.576-5.851-4.588-12.334-6.948-18.606c-2.117-5.628-2.863-11.694-2.474-17.672c0.962-14.782,16.42-22.416,27.892-28.852
					c11.923-6.689,24.35-11.647,35-20.406c13.101-10.773,24.604-24.747,35.019-38.073c10.231-13.091,20.9-27.905,37.196-33.662
					C33.794,284.942,32.495,280.111,29.446,281.188L29.446,281.188z"/>
			</g>
		</g>
	</g>
	<g display="inline">
		
			<image overflow="visible" width="1800" height="1220" xlink:href="23F0B679.png"  transform="matrix(0.24 0 0 0.24 -160.4849 535.498)">
		</image>
		<g>
			<g>
				<path fill="#B9DCF4" d="M-138.54,560.846c6.96,12.318,13.202,23.911,23.287,34.027c9.667,9.695,21.328,17.317,32.963,24.407
					c10.312,6.283,20.714,12.763,31.644,17.841c3.806,1.768,7.549,3.912,10.687,6.715c5.226,4.669,0.641,8.457-4.697,10.224
					c-3.042,1.007-6.012,1.461-9.086,2.667c-3.421,1.343-6.879,2.572-10.384,3.675c-4.354,1.369-8.852,2.312-13.241,3.589
					c-6.06,1.764-16.464,4.262-19.085,10.901c-1.074,2.722-0.372,6.104,2.085,7.845c1.762,1.25,3.643,1.877,5.772,2.197
					c3.115,0.468,6.113,2.033,9.229,2.709c14.34,3.111,29.005,4.979,43.589,6.507c6.825,0.716,14.152,0.51,20.852,1.854
					c3.323,0.667,5.657,3.363,8.634,4.791c2.424,1.163,5.094,2.128,7.756,2.443c11.425,1.355,24.443,1.385,35.201-3.218
					c10.697-4.576,18.319-15.264,21.956-26.058c2.281-6.771,4.843-13.445,7.2-20.19c2.621-7.5,4.583-13.751,11.056-18.923
					c11.335-9.056,24.184-13.017,38.648-13.124c5.759-0.043,12.439,0.462,18.028,1.934c5.536,1.458,7.705,14.198,8.484,18.95
					c1.666,10.154,6.258,19.131,14.666,25.261c6.636,4.839,18.788,8.975,25.852,3.229c2.061-1.677,3.125-4.599,4.298-6.873
					c1.534-2.975,3.193-5.881,4.918-8.749c3.916-6.511,8.128-12.367,14.388-16.779c4.982-3.512,10.649-6.355,16.607-7.704
					c5.643-1.278,10.448-3.957,16.483-2.809c4.543,0.864,6.268,5.135,4.505,9.26c-1.339,3.132-4.396,4.679-6.513,7.135
					c-4.717,5.473-10.674,9.825-16.13,14.512c-4.045,3.474-9.933,8.076-11.593,13.374c-0.833,2.66-0.967,5.37-1.458,8.1
					c-0.506,2.813-6.363,5.481-8.668,6.803c-6.132,3.515-12.728,6.391-19.05,9.552c-3.109,1.555-5.92,3.888-9,5.556
					c-2.986,1.619-7.402,4.34-10.738,4.604c-2.81,0.223-6.009-1.935-8.785-2.409c-2.482-0.426-4.093,0.652-6.374,1.267
					c-4.182,1.127-6.938,5.328-8.749,8.942c-1.895,3.783-2.978,7.951-4.002,12.034c-2.02,8.056-4.514,15.944-6.211,24.087
					c-1.328,6.374-1.68,11.662,0.271,17.932c1.878,6.039,5.518,11.459,8.471,16.996c1.831,3.434,4.032,6.805,6.411,9.892
					c2.468,3.205,4.054,6.958,6.701,10.022c2.111,2.444,5.632-1.108,3.535-3.535c-1.903-2.204-2.557-5.448-4.5-7.5
					c-2.083-2.201-3.681-4.65-5.298-7.199c-3.708-5.842-7.394-12.156-9.99-18.588c-3.024-7.491-1.306-14.681,0.443-22.248
					c1.654-7.156,3.826-14.177,5.693-21.276c1.232-4.683,2.797-9.615,6.2-13.192c5.073-5.332,11.79,0.124,17.676-0.342
					c4.392-0.348,9.468-3.921,13.268-5.98c3.142-1.702,5.942-3.964,9.136-5.561c3.818-1.909,7.636-3.818,11.454-5.727
					c5.348-2.674,10.322-5.414,14.863-9.348c1.77-1.532,2.104-3.168,2.396-5.466c0.627-4.946,1.965-7.811,5.375-11.526
					c8.844-9.636,21.1-16.37,28.753-27.105c6.534-9.165-1.472-17.947-10.899-18.37c-4.713-0.211-9.59,1.288-13.957,2.887
					c-5.678,2.078-10.968,3.767-16.233,6.916c-11.199,6.698-17.762,17.733-23.717,29.022c-1.595,3.021-2.771,6.711-6.674,7.188
					c-2.662,0.324-5.628-0.675-8.177-1.342c-5.804-1.519-10.868-5.152-14.476-9.894c-3.325-4.369-5.082-9.652-6.121-14.979
					c-1.174-6.018-2.658-11.675-5.326-17.271c-2.069-4.338-5.272-6.626-10.03-7.198c-6.459-0.777-12.74-1.603-19.269-1.429
					c-12.402,0.329-24.656,3.922-34.826,11.092c-4.761,3.356-8.994,7.276-12.002,12.289c-3.413,5.686-4.796,12.831-7.035,19.028
					c-4.721,13.067-8.723,28.246-21.941,35.374c-5.635,3.039-12.522,3.848-18.801,4.232c-5.729,0.352-12.904,0.76-18.365-1.19
					c-5.232-1.869-9.322-6.076-15.003-6.761c-7.307-0.881-14.752-1.114-22.093-1.884c-7.723-0.81-15.423-1.802-23.095-3.007
					c-7.363-1.157-15.122-2.195-22.246-4.418c-2.439-0.761-5.774-1.37-8.035-2.503c-2.657-1.331,0.288-3.837,1.383-4.632
					c3.666-2.66,8.342-3.999,12.619-5.307c3.547-1.084,7.121-2.019,10.721-2.896c7.337-1.786,14.177-5.808,21.604-6.986
					c7.236-1.147,15.371-8.079,10.967-15.68c-3.604-6.221-12.179-9.984-18.56-12.507c-5.875-2.321-11.541-6.658-17.014-9.842
					c-6.501-3.781-12.96-7.631-19.276-11.717c-12.263-7.932-24.272-17.296-32.939-29.19c-4.982-6.837-8.598-14.608-12.747-21.952
					C-135.808,555.516-140.128,558.035-138.54,560.846L-138.54,560.846z"/>
			</g>
		</g>
	</g>
	<g display="inline">
		
			<image overflow="visible" width="1003" height="426" xlink:href="23F0B67B.png"  transform="matrix(0.24 0 0 0.24 -214.8696 695.9775)">
		</image>
		<g>
			<g>
				<path fill="#B9DCF4" d="M0.948,717.665c-19.877,5.065-38.722,13.118-56.727,22.874c-8.713,4.721-17.044,10.076-25.654,14.976
					c-8.671,4.935-16.263,11.556-25.752,14.891c-4.875,1.714-10.176,1.172-15.268,1.133c-5.789-0.044-11.575-0.205-17.356-0.511
					c-9.361-0.496-18.761-1.71-28.07-2.828c-4.137-0.497-8.228-1.291-12.202-2.548c-4.531-1.432-6.425-4.55-7.531-8.956
					c-1.751-6.971-0.341-14.539-0.266-21.62c0.034-3.226-4.966-3.223-5,0c-0.077,7.312-0.958,14.507,0.209,21.786
					c1.201,7.488,5.556,11.81,12.571,14.026c8.643,2.731,17.988,2.689,26.898,3.917c12.077,1.664,24.361,1.727,36.533,1.764
					c9.994,0.031,18.204-3.685,26.188-9.523c8.595-6.286,18.406-11.309,27.572-16.719c20.439-12.067,42.138-21.966,65.185-27.839
					C5.399,721.691,4.074,716.869,0.948,717.665L0.948,717.665z"/>
			</g>
		</g>
	</g>
	<g display="inline">
		<g>
			<path fill="#B9DCF4" d="M136.105,600.082c0.345-3.492,3.47-5.369,6.261-6.84c2.481-1.309,4.809-4.479,6.95-6.336
				c5.978-5.183,12.801-9.118,19.023-13.96c12.122-9.431,23.672-19.536,34.807-30.109c9.617-9.132,17.977-19.271,27.285-28.666
				c4.584-4.626,9.985-8.938,16.199-11.111c7.056-2.467,15.06-0.148,22.182,0.741c6.963,0.87,13.929,1.676,20.926,2.216
				c6.486,0.501,13.997,1.611,20.356-0.159c3.39-0.943,5.243-3.795,6.464-6.865c2.403-6.044,3.608-12.509,3.949-18.983
				c0.628-11.937-5.184-19.775-14.763-26.322c-9.976-6.817-19.957-15.139-26.3-25.592c-3.344-5.51-4.33-12.034-6.433-18.053
				c-2.29-6.553-5.172-12.903-7.981-19.245c-5.944-13.422-11.453-27.215-16.269-41.086c-2.389-6.882-4.109-13.971-4.711-21.24
				c-0.286-3.447-0.389-7.244,0.276-10.654c0.681-3.49,3.878-6.274,6.385-8.521c4.458-3.997,9.526-7.915,14.373-11.419
				c5.122-3.703,10.47-7.361,13.972-12.748c6.735-10.36,0.547-24.191,3.484-35.467c3.192-12.257,15.966-19.065,26.282-24.623
				c8.171-4.402,17.399-10.262,15.3-20.994c-1.065-5.45-3.741-10.253-6.31-15.115c-1.331-2.517-2.679-5.032-3.937-7.585
				c-2.18-4.428-1.59-7.752-0.595-12.342c1.3-6,7.8-10.473,12.371-13.914c4.425-3.331,9.255-6.469,12.994-10.589
				c9.577-10.553-4.443-22.976,1.049-34.288c2.44-5.027,7.297-8.594,9.885-13.628c2.476-4.819,2.431-10.34,1.601-15.548
				c-0.876-5.5-3.343-10.777-5.758-15.745c-1.236-2.542-2.585-5.031-3.906-7.53c-1.602-3.032-2.466-6.307-3.851-9.436
				c-2.538-5.736-5.168-11.485-7.327-17.379c-2.636-7.198,3.414-13.901,7.772-19.004c2.841-3.326,4.375-7.567,4.762-11.893
				c0.609-6.81,0.662-13.979,0.156-20.796c-1.008-13.569-10.767-22.98-19.946-32.044c-4.723-4.664-10.565-9.022-14.361-14.494
				c-3.664-5.281-3.323-12.417-2.235-18.43c0.927-5.125,2.744-10.124,4.768-14.907c1.241-2.933-3.064-5.484-4.317-2.523
				c-3.826,9.041-7.486,19.375-5.811,29.342c2.07,12.32,13.847,19.851,22.086,28.217c5.101,5.179,10.767,10.817,13.347,17.734
				c2.545,6.821,1.667,14.683,1.546,21.806c-0.109,6.414-0.694,11.573-5.278,16.39c-3.64,3.824-7.103,9.412-8.053,14.632
				c-1.049,5.763,2.516,11.127,4.41,16.298c0.86,2.35,1.885,4.608,2.945,6.874c1.499,3.204,2.282,6.702,3.867,9.83
				c5.357,10.568,14.439,23.824,9.266,36.082c-2.182,5.17-7.027,8.845-9.885,13.629c-3.11,5.208-1.595,12.004-0.398,17.558
				c1.493,6.927,4.221,11.793-1.588,17.506c-4.256,4.187-9.593,7.419-14.278,11.107c-8.665,6.82-14.696,16.991-10.403,28.076
				c3.761,9.712,16.975,23.584,6.68,33.007c-3.83,3.505-8.984,5.687-13.492,8.16c-4.771,2.618-9.381,5.759-13.554,9.249
				c-9.844,8.231-12.289,19.25-11.559,31.521c0.378,6.356,1.061,12.906-2.046,18.732c-3.279,6.149-11.057,9.977-16.395,14.116
				c-8.613,6.678-18.578,12.933-19.366,24.669c-0.944,14.076,4.012,27.89,9.133,40.743c5.208,13.072,10.439,26.045,16.014,38.972
				c4.989,11.57,6.737,24.733,14.625,34.823c7.11,9.095,16.123,16.37,25.574,22.829c5.256,3.592,9.493,8.257,11.096,14.526
				c1.839,7.196-1.264,15.484-3.037,22.299c-1.819,6.99-7.315,6.073-13.485,5.916c-7.762-0.197-15.5-0.972-23.209-1.861
				c-6.761-0.78-13.479-2.122-20.277-2.517c-6.503-0.377-12.051,1.489-17.601,4.703c-10.555,6.112-17.895,16.73-26.049,25.501
				c-10.057,10.817-21.294,20.767-32.515,30.351c-5.979,5.107-12.128,10.016-18.406,14.75c-5.953,4.488-12.136,8.293-17.737,13.302
				c-4.864,4.35-11.291,7.188-12,14.354C130.788,603.29,135.792,603.26,136.105,600.082L136.105,600.082z"/>
		</g>
	</g>
	<g display="inline">
		
			<image overflow="visible" width="1322" height="2445" xlink:href="31CA5D88.png"  transform="matrix(0.24 0 0 0.24 -225.3462 -226.6069)">
		</image>
		<g>
			<g>
				<path fill="#B9DCF4" d="M64.341-200.61c2.121,2.655,0.865,7.163,0.768,10.232c-0.12,3.793-0.091,7.407-0.916,11.147
					c-1.621,7.349-4.65,14.144-8.231,20.732c-6.843,12.588-15.139,25.075-23.621,36.613c-3.775,5.135-7.328,9.775-10.094,15.553
					c-3.004,6.275-8.375,12.228-13.39,16.945c-4.648,4.372-9.759,8.207-14.32,12.679c-4.597,4.507-8.603,9.966-12.175,15.309
					c-6.275,9.384-12.646,23.674-9.446,35.124c1.5,5.366,5.136,10.013,8.708,14.158c1.957,2.271,4.105,4.38,6.222,6.5
					c3.806,3.812,0.252,4.605-3.237,5.543c-6.022,1.62-12.137,3.069-18.362,3.57c-6.643,0.535-12.779,0.067-19.16,2.461
					c-10.639,3.991-22.074,5.425-31.443,12.374c-10.042,7.447-15.314,19.883-21.795,30.159
					c-6.737,10.684-7.868,25.624-18.878,33.053c-4.298,2.9-8.216,5.767-11.133,10.149c-2.936,4.411-3.809,10.721-4.138,15.854
					c-0.386,6.003,0.522,11.513-3.597,16.44c-4.486,5.365-10.306,9.665-15.245,14.604c-3.664,3.665-8.25,8.731-9.646,13.851
					c-1.887,6.917-2.774,14.045-4.631,20.967c-1.851,6.901-6.714,12.096-9.934,18.363c-3.226,6.278-3.711,13.455-6.841,19.642
					c-2.528,4.997-6.931,8.723-9.511,13.661c-2.847,5.449-2.053,12.013-2.571,17.92c-0.616,7.019-1.904,13.934-1.319,21.003
					c0.196,2.358,0.388,4.745,1.394,6.92c1.405,3.036,3.481,5.581,4.525,8.792c1.239,3.808,2.908,7.018,5.532,10.103
					c1.759,2.069,3.599,3.854,5.062,6.192c0.943,1.507,1.444,3.704,2.944,4.754c5.729,4.013,9.939,8.961,10.552,16.132
					c0.542,6.356-1.159,12.846-1.291,19.208c-0.067,3.226,4.933,3.22,5,0c0.145-6.965,1.748-13.857,1.152-20.831
					c-0.532-6.229-3.978-11.218-8.415-15.371c-2.296-2.149-4.038-3.606-5.625-6.416c-1.349-2.389-3.174-4.468-5.094-6.405
					c-4.283-4.322-5.015-10.293-8.191-15.292c-3.681-5.791-2.893-13.18-2.235-19.728c0.366-3.638,0.851-7.26,1.17-10.903
					c0.346-3.946,0.024-7.849,1.04-11.712c1.377-5.241,6.63-9.777,9.523-14.33c3.684-5.796,4.025-13.052,6.789-19.293
					c2.61-5.896,7.394-10.575,9.641-16.549c2.476-6.582,3.417-13.519,4.871-20.365c3.116-14.667,16.656-21.534,25.635-32.272
					c2.707-3.237,3.746-6.939,4.142-11.066c0.68-7.082,0.089-13.741,3.13-20.443c2.475-5.457,8.765-8.334,13.33-11.716
					c2.185-1.619,3.054-3.077,4.294-5.478c1.492-2.887,3.505-5.435,5.062-8.305c1.224-2.256,1.382-4.945,2.206-7.347
					c1.201-3.503,2.757-6.773,4.731-9.902c3.789-6.004,7.184-12.249,11.034-18.214c3.455-5.353,7.758-10.403,13.204-13.782
					c5.379-3.336,11.686-5.096,17.73-6.787c5.922-1.657,11.814-4.269,17.938-4.833c6.607-0.608,12.981-0.429,19.54-1.789
					C-17.741,5.819-2.466,4.225-5.511-4.774c-1.568-4.634-7.229-8.442-10.347-12.061c-2.406-2.792-4.468-5.939-5.902-9.341
					c-1.737-4.121-1.002-8.56-0.17-12.806c2.624-13.398,11.548-25.902,21.139-35.306c4.552-4.464,9.698-8.287,14.343-12.655
					c4.784-4.499,8.733-10.063,12.274-15.566c1.708-2.655,2.712-5.679,4.429-8.353c1.658-2.583,3.669-4.925,5.531-7.359
					c4.63-6.053,8.731-12.52,12.796-18.96c7.042-11.157,14.594-22.053,18.798-34.676c2.024-6.078,2.718-12.146,2.729-18.521
					c0.009-5.153,1.206-9.463-2.232-13.767C65.864-206.664,62.35-203.102,64.341-200.61L64.341-200.61z"/>
			</g>
		</g>
	</g>
	<g display="inline">
		
			<image overflow="visible" width="1004" height="1913" xlink:href="31CA5D8F.png"  transform="matrix(0.24 0 0 0.24 -172.4185 -101.9111)">
		</image>
		<g>
			<g>
				<path fill="#B9DCF4" d="M14.201-78.548c-2.003,6.964-4.114,13.885-5.297,21.047C7.776-50.675,8.036-43.64,7.991-36.744
					C7.95-30.619,8.307-24.53,9.528-18.52c1.28,6.3,4.396,11.536,7.781,16.887c6.793,10.739,18.981,18.17,23.193,30.442
					c2.289,6.67,1.575,12.994-3.184,18.26c-4.212,4.662-8.636,9.118-12.725,13.898c-8.352,9.763-14.339,22.121-17.441,34.477
					c-1.754,6.985-1.195,14.299-1.349,21.449c-0.161,7.462-1.915,12.335-7.553,17.173c-7.301,6.266-17.128,10.187-20.589,19.894
					c-4.383,12.294,1.181,26.188-1.312,38.743c-1.327,6.682-12.868,10.627-17.965,13.881c-4.221,2.694-11.74,8.308-11.769,14.019
					c-0.04,8.037-5.69,14.889-8.824,22.055c-1.677,3.834-2.75,7.832-4.103,11.778c-1.795,5.234-4.765,9.572-7.342,14.402
					c-2.352,4.408-4.253,8.529-7.882,12.088c-3.244,3.181-7.147,5.623-11.065,7.874c-7.401,4.252-15.302,7.707-23.056,11.25
					c-7.898,3.609-15.282,8.17-21.554,14.218c-3.056,2.947-5.463,6.504-8.38,9.586c-2.252,2.379-4.741,5.228-5.2,8.579
					c-0.432,3.151,4.386,4.512,4.821,1.329c0.415-3.029,2.915-5.316,4.925-7.44c2.198-2.322,4.019-4.874,6.156-7.259
					c5.094-5.687,11.917-9.889,18.698-13.251c11.555-5.729,24.31-10.127,34.518-18.227c5.321-4.222,8.553-8.688,11.574-14.723
					c3.155-6.301,6.819-11.874,9.124-18.596c2.324-6.777,4.405-13.772,8.493-19.763c1.459-2.139,1.849-4.244,2.888-6.527
					c1.252-2.753,0.637-5.886,1.92-8.563c5.039-10.517,19.442-12.217,26.537-20.886c3.132-3.827,2.75-8.53,2.75-13.173
					c0-6.978-0.372-13.946-0.37-20.92c0.001-6.984,1.845-12.137,7.014-16.789c3.871-3.483,8.496-6.117,12.612-9.3
					c3.322-2.569,6.385-5.815,8.027-9.731c2.752-6.564,1.928-14.404,1.983-21.362c0.143-17.979,9.986-35.832,22.499-48.373
					c2.931-2.937,5.741-6.353,8.544-9.455c2.212-2.449,3.609-5.169,4.385-8.36c1.699-6.994-0.779-14.674-4.164-20.749
					c-1.756-3.152-4.339-5.49-6.765-8.101c-3.019-3.249-5.58-6.551-8.711-9.686c-5.821-5.829-10.43-14.452-12.318-22.375
					c-2.044-8.577-1.332-17.736-1.244-26.472c0.107-10.76,2.965-20.64,5.916-30.898C19.916-80.325,15.09-81.641,14.201-78.548
					L14.201-78.548z"/>
			</g>
		</g>
	</g>
	<g display="inline">
		<g>
			<path fill="#B9DCF4" d="M4.85,156.763c11.578,6.761,24.683,10.157,36.572,16.272c5.899,3.034,12.854,7.331,16.247,13.181
				c3.657,6.307,0.163,15.127-4.554,19.844c-1.758,1.758-3.516,3.516-5.273,5.274c-2.267,2.267-5.466,4.012-7.16,6.803
				c-3.12,5.137-3.999,10.245-4.069,16.201c-0.086,7.246-0.068,14.196-2.327,21.172c-2.488,7.684-5.96,15.088-8.086,22.923
				c-0.846,3.117,3.978,4.438,4.821,1.329c2.114-7.79,5.273-15.371,8.086-22.923c2.659-7.14,2.492-15.008,2.505-22.501
				c0.007-3.853,0.273-7.667,1.91-11.213c1.644-3.561,5.091-5.663,7.854-8.256c4.416-4.145,8.862-8.516,11.049-14.297
				c11.143-29.471-37.808-38.056-55.053-48.126C4.583,150.816,2.068,155.139,4.85,156.763L4.85,156.763z"/>
		</g>
	</g>
	<g display="inline">
		
			<image overflow="visible" width="878" height="1982" xlink:href="31CA5D89.png"  transform="matrix(0.24 0 0 0.24 46.5303 -239.7998)">
		</image>
		<g>
			<g>
				<path fill="#B9DCF4" d="M161.193-215.212c5.665,13.685,14.097,26.117,20.593,39.431c6.783,13.9,14.22,27.707,20.008,42.032
					c2.357,5.835,5.03,11.524,8.12,17.008c3.955,7.02,8.592,13.136,11.538,20.729c2.308,5.949,5.06,11.85,7.177,17.849
					c2.173,6.16,3.688,15.526,0.194,21.392c-3.473,5.831-9.43,9.559-14.144,14.272c-5.784,5.784-11.719,11.453-17.291,17.444
					c-9.113,9.798-16.502,21.254-21.521,33.632c-5.031,12.41-10.658,24.272-10.168,37.961c0.219,6.139,1.466,12.274,2.015,18.404
					c0.695,7.76,0.104,13.708-4.069,20.432c-7.241,11.669-20.373,18.458-31.532,25.734c-3.955,2.578-8.993,4.355-11.575,8.611
					c-3.598,5.929-4.237,13.315-6.536,19.765c-2.506,7.032-7.04,13.124-10.437,19.715c-3.491,6.774-5.098,14.749-9.081,21.205
					c-3.622,5.871-8.363,10.966-12.535,16.437c-2.38,3.121-5.646,13.102-10.676,12.35c-3.153-0.471-4.509,4.346-1.329,4.821
					c9.521,1.423,13.163-10.651,17.86-16.635c3.752-4.779,7.675-9.347,10.998-14.449c3.787-5.815,5.414-13.407,8.347-19.703
					c2.779-5.965,6.592-11.384,9.492-17.295c2.957-6.03,4.589-12.691,6.266-19.159c1.662-6.411,6.78-8.071,11.73-11.345
					c5.509-3.643,11.167-7.042,16.556-10.865c9.074-6.437,18.698-15.425,21.326-26.683c1.335-5.722,0.256-11.905-0.213-17.665
					c-0.536-6.583-1.694-12.942-1.701-19.603c-0.007-6.681,3.25-14.067,5.683-20.163c2.792-6.994,5.565-14.124,9.241-20.698
					c7.464-13.346,17.817-23.844,28.534-34.56c5.563-5.563,12.599-10.446,17.253-16.813c1.839-2.516,3.632-4.969,4.02-8.114
					c0.496-4.017,0.371-7.959-0.151-11.968c-0.981-7.525-4.535-13.852-7.145-20.872c-3.222-8.668-7.179-15.99-12.089-23.803
					c-4.617-7.348-8.071-15.361-11.207-23.428c-3.358-8.641-8.211-16.793-12.233-25.161c-3.995-8.312-7.932-16.65-12.173-24.84
					c-4.657-8.993-10.432-17.337-14.321-26.731C164.8-219.477,159.96-218.191,161.193-215.212L161.193-215.212z"/>
			</g>
		</g>
	</g>
	<g display="inline">
		
			<image overflow="visible" width="578" height="1469" xlink:href="31CA5D8B.png"  transform="matrix(0.24 0 0 0.24 104.9961 -229.2886)">
		</image>
		<g>
			<g>
				<path fill="#B9DCF4" d="M215.443-206.639c-3.9,5.078-6.618,10.696-8.943,16.633c-2.779,7.093-5.436,14.174-8.381,21.208
					c-2.347,5.604-5.556,12.724-5.516,18.918c0.041,6.319,0.484,12.557,2.033,18.7c1.349,5.352,3.76,10.624,6.773,15.227
					c3.531,5.397,8.386,9.708,11.378,15.487c2.793,5.396,6.462,12.28,1.296,17.183c-4.322,4.102-8.711,8.094-12.937,12.319
					c-4.611,4.611-8.126,10.289-12.031,15.493c-1.987,2.649-4.945,5.041-6.671,7.824c-2.087,3.364-4.42,6.528-6.822,9.672
					c-3.807,4.981-6.508,10.638-11.78,14.18c-4.582,3.078-7.945,6.839-10.847,11.533c-6.276,10.155-10.683,23.29-12.246,35.081
					c-0.92,6.943-0.578,13.947-0.794,20.933c-0.265,8.543-1.457,16.88-3.66,25.137c-1.269,4.752-2.415,9.684-4.044,14.319
					c-1.8,5.12-4.128,9.979-5.556,15.236c-0.846,3.116,3.978,4.438,4.821,1.329c1.697-6.25,4.848-12.001,6.45-18.257
					c1.906-7.447,4.303-14.705,5.573-22.306c2.44-14.596,0.113-29.521,3.843-43.905c2.984-11.508,7.645-26.84,17.862-34.028
					c4.56-3.208,7.141-5.83,10.142-10.512c3.865-6.029,8.503-12.584,13.312-17.857c4.522-4.959,8.222-10.671,12.236-16.033
					c3.81-5.087,8.954-10.108,13.814-14.195c3.676-3.091,6.858-5.631,7.261-10.638c0.409-5.082-2.916-10.555-4.905-15.031
					c-2.386-5.366-6.989-9.602-10.481-14.221c-3.964-5.245-6.378-11.588-7.797-17.959c-1.53-6.869-1.632-14.051,0.099-20.855
					c1.994-7.835,5.646-15.2,8.836-22.591c3.821-8.854,5.993-17.679,12-25.499C221.725-206.673,217.378-209.158,215.443-206.639
					L215.443-206.639z"/>
			</g>
		</g>
	</g>
	<g display="inline">
		<g>
			<path fill="#B9DCF4" d="M842.86-246.749c31.318,0.683,39.735,37.894,49.963,60.998c5.716,12.912,13.141,24.971,19.108,37.774
				c6.314,13.545,11.953,27.4,17.883,41.115c5.922,13.698,12.949,26.847,18.182,40.85c4.872,13.042,9.388,27.883,9.374,41.899
				c-0.013,14.191-0.51,28.404-4.518,42.114c-2.269,7.762-6.194,13.742-11.161,20.021c-4.654,5.883-9.042,12.012-13.965,17.66
				c-9.165,10.513-15.22,23.921-21.724,36.132c-6.28,11.792-7.909,25.261-7.435,38.434c0.504,14.014,3.431,27.848,4.937,41.764
				c0.73,6.748,1.021,13.524,0.724,20.306c-0.357,8.14-2.798,15.619-5.979,23.064c-10.46,24.489-29.605,44.833-35.101,71.425
				c-5.685,27.504,3.662,54.101,8.622,80.865c3.008,16.226,2.604,32.341-2.443,48.08c-2.553,7.96-5.42,15.777-7.224,23.956
				c-1.718,7.783-1.695,15.994-3.188,23.893c-3.188,16.862-4.139,33.222-3.012,50.367c0.536,8.161,1.996,16.296,3.117,24.384
				c1.335,9.623,5.116,18.678,5.342,28.481c0.074,3.219,5.074,3.227,5,0c-0.153-6.669-1.694-13.08-3.304-19.523
				c-1.823-7.297-2.423-14.638-3.814-21.98c-2.68-14.146-2.771-30.031-1.219-44.318c0.763-7.02,2.35-13.941,3.599-20.884
				c1.239-6.885,1.175-13.986,2.675-20.787c2.812-12.744,9.054-24.689,10.647-37.71c3.33-27.225-6.515-52.479-10.384-79.026
				c-2.168-14.876-1.558-30.102,3.027-44.468c4.134-12.954,12.192-24.908,19.199-36.475c6.802-11.229,13.097-22.708,17.105-35.261
				c4.179-13.085,2.519-27.749,0.812-41.131c-1.765-13.84-4.361-27.586-4.229-41.591c0.064-6.938,1.136-13.762,3.152-20.395
				c2.338-7.692,6.927-14.376,10.543-21.482c6.767-13.298,15.671-24.625,24.877-36.263c4.019-5.08,8.897-10.19,11.729-16.047
				c3.061-6.329,4.947-13.16,6.268-20.041c2.45-12.759,3.537-27.336,1.89-40.242c-1.737-13.615-5.386-26.83-10.285-39.63
				c-6.864-17.938-15.886-35.052-23.417-52.724c-7.373-17.3-14.845-34.492-24.076-50.898c-9.311-16.545-14.8-34.897-23.454-51.764
				c-1.649-3.214-3.476-7.647-6.073-10.206c-3.149-3.103-6.438-5.981-10.023-8.568c-6.397-4.615-13.896-6.994-21.747-7.166
				C839.634-251.819,839.641-246.819,842.86-246.749L842.86-246.749z"/>
		</g>
	</g>
	<g display="inline">
		<g>
			<path fill="#B9DCF4" d="M1095.387-219.246c-0.187,4.231-1.547,8.001-3.266,11.831c-1.225,2.728-2.735,4.772-2.735,7.79
				c0,7.461,0,14.922,0,22.384c0,14.191-0.314,28.417,0.597,42.587c1.725,26.824,8.672,52.99,22.926,75.936
				c7.57,12.185,14.765,24.399,23.234,36.034c8.458,11.619,17.164,23.083,24.046,35.739c7.307,13.439,13.026,27.298,18.006,41.752
				c4.938,14.337,10.281,28.601,14.729,43.096c8.97,29.233,13.375,59.814,14.137,90.346c0.371,14.874,0.888,30.91-3.171,45.315
				c-1.949,6.917-4.584,13.614-6.402,20.573c-1.955,7.481-3.802,14.957-6.284,22.288c-2.423,7.154-5.919,13.693-7.874,21.009
				c-1.87,6.999-2.825,14.226-3.393,21.435c-1.139,14.449-0.284,29.006-0.83,43.481c-0.56,14.865-2.74,28.882-8.679,42.547
				c-2.734,6.291-5.523,13.345-10.415,18.276c-4.449,4.486-8.498,9.256-11.427,14.884c-5.682,10.917-6.294,23.398-5.723,35.423
				c0.585,12.311,0.528,24.594,0.528,36.918c0,6.251-1.015,13.461,0.436,19.55c1.349,5.661,1.983,11.496,2.896,17.237
				c0.943,5.934,2.242,11.771,4.429,17.377c2.171,5.565,1.234,11.847,2.974,17.664c1.457,4.875,2.213,9.826,4.093,14.612
				c2.122,5.403,3.066,10.103,3.258,15.902c0.369,11.184,1.883,22.625-1.407,33.532c-3.02,10.01-11.503,18.458-17.725,26.562
				c-6.56,8.544-12.123,17.55-13.865,28.347c-0.508,3.153,4.31,4.507,4.822,1.33c3.938-24.425,29.508-37.713,33.165-62.056
				c0.872-5.803,0.741-11.711,0.505-17.556c-0.233-5.769,0.137-12.113-0.896-17.79c-1.04-5.713-3.904-10.804-5.276-16.422
				c-0.362-1.485-0.098-3.076-0.495-4.519c-0.458-1.666-1.345-3.233-1.846-4.909c-1.189-3.978-1.06-8.319-1.065-12.428
				c-0.004-2.561-2.243-5.689-3.041-8.178c-1-3.116-1.643-6.349-2.25-9.56c-1.289-6.806-1.984-13.703-3.453-20.477
				c-0.849-3.915-0.257-8.486-0.257-12.477c0-3.789,0-7.578,0-11.368c0-7.291,0.135-14.597-0.052-21.886
				c-0.386-15.131-1.994-29.707,5.288-43.7c2.927-5.624,7.604-10.166,12.033-14.603c4.558-4.563,7.137-12.684,9.669-18.511
				c11.321-26.047,8.241-54.362,9.312-82.063c0.282-7.308,1.135-14.547,2.658-21.701c1.712-8.036,5.294-15.193,8.119-22.843
				c2.476-6.706,4.274-13.652,6.029-20.573c1.915-7.55,4.43-14.859,6.751-22.288c4.296-13.755,4.003-28.646,3.94-42.929
				c-0.065-15.156-1.224-30.299-3.233-45.317c-1.95-14.577-4.869-29.004-8.691-43.205c-3.933-14.613-9.429-28.714-14.266-43.037
				c-8.238-24.394-17.603-47.648-32.248-68.989c-14.623-21.308-30.289-41.643-42.33-64.612
				c-11.819-22.548-16.073-48.039-16.866-73.242c-0.396-12.589-0.118-25.221-0.118-37.815c0-2.902,0-5.805,0-8.708
				c0-2.959-0.878-7.66,0.475-10.373c2.799-5.614,5.247-11.284,5.526-17.627C1100.529-222.471,1095.528-222.457,1095.387-219.246
				L1095.387-219.246z"/>
		</g>
	</g>
	<g display="inline">
		<g>
			<path fill="#B9DCF4" d="M1170.394,479.824c-0.318,27.043-15.942,50.617-25.442,75.138c-8.242,21.272-9.746,48.168-28.064,63.848
				c-18.649,15.962-37.959,35.819-45.04,59.959c-1.614,5.501-4.21,10.642-6.265,15.987c-2.313,6.016-3.19,12.074-3.201,18.484
				c-0.017,9.482,0.909,25.104-7.761,31.453c-2.572,1.884-0.082,6.226,2.523,4.316c7.88-5.771,9.266-16.184,9.938-25.279
				c0.398-5.405,0.08-10.832,0.457-16.232c0.495-7.089,3.801-13.794,6.525-20.228c2.286-5.396,3.618-11.076,6.039-16.425
				c2.863-6.326,6.729-12.184,10.833-17.761c8.128-11.045,18.095-20.779,28.386-29.788c8.549-7.482,13.636-15.961,17.679-26.565
				c4.37-11.463,7.051-23.501,10.889-35.141c8.181-24.813,23.722-47.009,27.021-73.342c0.351-2.794,0.451-5.611,0.484-8.425
				C1175.432,476.599,1170.432,476.603,1170.394,479.824L1170.394,479.824z"/>
		</g>
	</g>
	<g display="inline">
		<g>
			<path fill="#B9DCF4" d="M1179.395,461.822c0,15.098-1.007,30.461,1.984,45.343c2.78,13.839,8.577,27.446,13.906,40.467
				c5.3,12.95,12.407,25.037,19.584,37.013c3.357,5.604,9.05,10.407,13.263,15.46c4.968,5.957,10.909,11.374,15.426,17.65
				c3.411,4.742,5.977,9.993,9.574,14.62c4.171,5.364,8.547,10.334,13.628,14.86c2.145,1.911,4.346,3.757,6.494,5.664
				c2.771,2.46,4.131,5.483,5.765,8.75c3.382,6.766,7.021,13.397,9.371,20.609c0.988,3.031,1.7,6.173,1.977,9.349
				c0.296,3.399-3.067,8.175-4.643,11.096c-3.72,6.896-8.358,12.984-12.907,19.308c-3.743,5.203-6.484,11.088-10.652,15.983
				c-3.928,4.612-5.286,12.047-6.81,17.833c-3.003,11.403-5.384,25.157-3.569,36.901c1.352,8.756,9.3,15.345,15.857,20.412
				c8.242,6.369,17.798,11.838,24.104,20.326c8.514,11.461,16.34,24.755,16.661,39.396c0.07,3.22,5.071,3.227,5,0
				c-0.306-13.917-6.719-26.445-14.372-37.744c-6.239-9.211-14.234-15.556-23.146-22.037c-7.777-5.655-18.481-12.6-19.454-23.136
				c-1.282-13.894,2.168-29.135,6.567-42.216c1.967-5.85,5.99-10.212,9.163-15.458c3.7-6.118,8.192-11.535,12.095-17.516
				c3.735-5.726,7.389-11.678,9.878-18.069c2.246-5.768,0.452-11.528-1.414-17.252c-1.938-5.945-4.965-11.464-7.751-17.036
				c-1.637-3.273-3.273-6.546-4.91-9.819c-1.135-2.271-4.549-4.352-6.439-5.987c-10.259-8.88-17.617-18.747-24.896-30.097
				c-3.46-5.396-8.332-9.707-12.512-14.527c-4.67-5.384-9.084-10.972-13.934-16.201c-4.867-5.25-8.167-12.083-11.673-18.298
				c-3.4-6.027-6.535-12.195-9.361-18.513c-5.669-12.668-10.866-26.317-14.285-39.778c-3.903-15.363-2.568-31.648-2.568-47.356
				C1184.395,458.598,1179.395,458.598,1179.395,461.822L1179.395,461.822z"/>
		</g>
	</g>
	<g display="inline">
		<g>
			<path fill="#B9DCF4" d="M1224.399-186.242c-1.563,30.646-4.624,61.254-4.081,91.971c0.516,29.217,5.352,57.592,16.939,84.507
				c9.196,21.361,20.396,45.148,38.852,60.107c10.078,8.169,19.866,17.233,29.125,26.345c10.329,10.166,17.063,21.879,22.08,35.412
				c2.636,7.109,4.408,14.528,4.983,22.091c0.64,8.397-2.753,15.486-6.049,22.986c-0.967,2.202-2.84,5.211-2.84,7.615
				c0,3.857,0,7.715,0,11.572c0,7.885,0.166,15.778-0.333,23.652c-0.468,7.373-1.115,14.699-0.95,22.096
				c0.167,7.472,1.81,13.669,4.759,20.456c5.188,11.939,12.122,22.707,21.259,32.002c10.816,11.005,21.83,21.634,31.925,33.285
				c4.105,4.738,8.683,8.976,11.618,14.598c1.551,2.971,2.838,6.151,4.344,9.163c1.981,3.964,4.546,8.013,5.925,12.232
				c4.116,12.598-2.208,23.106-4.811,35.267c-1.194,5.586-1.208,11.242-0.194,16.848c0.982,5.431,4.178,13.63,8.705,17.013
				c9.234,6.9,18.854,13.654,25.688,23.107c1.735,2.399,3.181,5.037,4.317,7.769c0.917,2.204,0.931,5.234,2.102,7.231
				c1.098,1.874,2.305,2.965,2.589,5.168c0.175,1.348,0.08,2.782,0.143,4.138c0.128,2.78,1.237,5.361,2.46,7.811
				c6.149,12.324,11.614,24.651,16.064,37.723c4.639,13.626,9.737,27.176,16.886,39.71c3.089,5.416,5.032,11.253,8.467,16.559
				c3.722,5.746,8.199,11.02,12.848,16.027c4.454,4.799,9.284,9.247,14.248,13.511c4.972,4.27,10.504,7.766,15.296,12.249
				c9.579,8.962,14.768,21.386,23.096,31.438c8.814,10.64,18.718,20.183,27.083,31.218c9.817,12.952,20.468,24.171,33.739,33.62
				c12.802,9.114,27.06,16.138,41.598,22.007c2.991,1.207,4.278-3.631,1.328-4.822c-13.104-5.29-25.725-11.708-37.513-19.519
				c-12.512-8.29-22.811-18.457-32.063-30.209c-8.469-10.757-17.297-20.836-26.455-31.013c-4.519-5.021-8.734-10.272-12.412-15.943
				c-3.599-5.549-6.556-11.101-10.895-16.161c-3.642-4.247-7.958-7.827-12.466-11.112c-5.828-4.247-11.196-8.996-16.369-14.02
				c-9.974-9.685-19.447-21.014-24.1-34.295c-0.97-2.77-3.027-5.457-4.385-8.077c-1.607-3.102-3.047-6.289-4.448-9.488
				c-3.288-7.505-6.004-15.264-8.662-23.008c-4.22-12.293-8.656-25.077-15.153-36.393c-1.746-3.041-3.1-5.805-3.265-9.378
				c-0.117-2.538-0.196-4.718-1.183-7.094c-0.963-2.32-2.157-4.127-2.856-6.621c-0.792-2.825-2.11-5.528-3.519-8.089
				c-5.261-9.565-14.22-16.724-22.764-23.206c-1.981-1.503-3.99-2.972-5.986-4.456c-2.844-2.113-4.781-6.899-6.022-10.067
				c-2.769-7.062-2.167-14.741-0.415-21.949c1.549-6.374,4.203-12.251,5.397-18.741c0.852-4.631,0.63-9.037-0.549-13.58
				c-1.609-6.201-5.147-11.867-7.995-17.563c-2.945-5.892-5.395-11.254-9.721-16.291c-9.589-11.163-19.611-21.611-30.029-32.029
				c-10.291-10.291-19.41-20.271-25.945-33.409c-3.545-7.126-6.086-13.669-6.623-21.681c-0.537-8,0.313-16.055,0.865-24.03
				c0.501-7.229,0.333-14.482,0.333-21.723c0-3.857,0-7.715,0-11.572c0-4.502,3.196-9.32,4.949-13.374
				c5.683-13.138,4.169-25.804-0.062-39.203c-3.902-12.356-9.761-24.199-18.115-34.129c-8.593-10.213-19.314-18.474-29-27.59
				c-4.031-3.795-8.496-7.014-12.406-10.952c-4.65-4.683-8.563-10.062-12.208-15.543c-6.967-10.473-12.627-21.814-17.804-33.256
				c-12.545-27.732-17.758-56.618-18.445-86.947c-0.696-30.699,2.519-61.345,4.081-91.971
				C1229.563-189.466,1224.563-189.45,1224.399-186.242L1224.399-186.242z"/>
		</g>
	</g>
	<g display="inline">
		<g>
			<path fill="#F9F9FA" d="M776.855-201.244c0,8.001,0,16.001,0,24.002c0,4.376-4.062,10.136-8.078,15.635
				c-4.145,5.673-7.669,11.807-11.994,17.34c-5.443,6.964-11.599,13.359-17.791,19.653c-2.636,2.679-5.24,5.327-7.732,8.133
				c-2.627,2.959-2.635,2.615-5.333,4.405c-6.149,4.08-12.607,7.38-18.421,11.982c-13.491,10.681-16.865,27.428-13.342,43.617
				c1.645,7.555,5.823,14.356,9.505,21.045c4.342,7.887,9.524,15.31,14.722,22.647c4.951,6.991,10.045,13.88,14.948,20.905
				c5.072,7.268,10.803,12.867,17.12,19.01c5.081,4.941,8.893,8.973,11.875,14.905c-1.163-2.313,0.466,2.069,0.483,2.126
				c0.466,1.519,0.742,3.097,1.036,4.655c0.472,2.498,0.648,6.89,0.809,10.702c0.289,6.883,0.722,12.992-1.227,17.486
				c-3.004,6.929-6.581,12.526-11.681,17.395c-0.389,0.34-0.776,0.68-1.165,1.02c1.678-1.398,0.896-0.811-2.344,1.762
				c-1.468,1.453-2.948,2.888-4.445,4.31c-3.069,2.915-6.279,5.676-9.543,8.371c-6.484,5.354-13.804,9.81-21.382,13.424
				c-15.689,7.482-31.632,14.422-47.118,22.403c-14.959,7.71-29.084,17.443-44.362,24.406
				c-14.371,6.548-29.486,11.681-42.762,20.526c-6.526,4.348-12.279,9.104-17.377,15.41c-5.213,6.447-10.673,11.024-16.743,16.563
				c-6.07,5.538-12.459,10.719-18.578,16.202c-6.723,6.023-11.938,13.211-16.966,20.672c-9.432,13.997-17.146,29.383-22.607,45.353
				c-1.497,4.377-1.321,10.365-1.638,14.986c-0.29,4.235-0.343,8.486-0.384,12.729c-0.088,9.158,0.064,18.299-0.562,27.444
				c-0.534,7.803-2.82,15.221-4.518,23.182c-2.018,9.465-2.355,18.577-0.323,28.062c4.168,19.452,21.623,30.329,29.938,46.17
				c-0.683-2.524-1.365-5.048-2.048-7.571c-0.002,6.169-0.027,14.364-0.806,19.241c-1.223,7.661-3.053,11.487-7.215,17.874
				c-3.013,4.623-6.521,8.529-10.701,13.739c-4.887,6.093-9.596,12.298-12.946,19.386c-3.665,7.754-5.939,16.201-8.646,24.32
				c-2.889,8.667-5.501,17.297-7.65,26.181c-3.954,16.345-3.04,33.099-3.04,49.772c0,8.259,1.528,16.124,2.596,24.274
				c0.271,2.071,0.354,4.146,0.405,6.231c0.002,0.075-0.538,5.349-0.044,2.407c-0.236,1.406-0.691,2.76-1.152,4.103
				c1.27-3.697-2.627,3.272-0.078,0.085c-0.799,0.998-1.75,1.867-2.686,2.731c-3.047,2.813,2.364-1.55-1.18,0.801
				c-2.344,1.556-4.905,2.782-7.447,3.971c-4.381,2.047,2.649-1.032-1.962,0.86c-2.384,0.979-4.674,1.859-6.825,3.292
				c-4.136,2.756-8.308,5.443-12.601,7.947c-5.896,3.438-12.162,5.17-18.417,7.784c-9.031,3.774-16.714,8.846-22.479,16.928
				c-9.982,13.994-9.979,29.128-8.834,45.621c0.286,4.117,0.422,8.223,0.251,12.347c-0.177,4.239,0.638-1.109-0.46,2.663
				c0.804-2.762-2.663,3.27-0.519,0.744c-4.51,5.313-10.949,8.531-15.369,13.982c-2.505,3.09-5.062,6.058-7.491,12.065
				c-1.671,4.134-2.269,8.355-2.857,12.758c-1.125,8.434-0.887,16.978-0.828,25.466c0.297,42.175,2.924,84.293,2.966,126.475
				c0.019,19.345,30.019,19.347,30,0c-0.035-35.84-1.85-71.634-2.67-107.457c-0.194-8.471-0.302-16.942-0.328-25.415
				c-0.019-6.002,0.212-14.783,0.885-18.209c0.291-1.479,0.75-2.908,1.23-4.333c-1.009,2.989,1.957-1.763-0.511,1.005
				c0.782-1.012,1.564-2.023,2.346-3.036c-0.958,1.161-0.867,1.09,0.275-0.213c0.928-1.025,1.995-1.93,3.034-2.836
				c5.368-4.686,10.263-8.472,14.614-14.249c9.554-12.685,4.87-31.338,4.672-45.899c-0.169-12.42,6.024-18.369,17.858-22.388
				c8.221-2.792,15.813-6.579,23.172-11.155c2.858-1.777,5.937-4.579,8.282-5.542c3.918-1.608,7.813-3.261,11.579-5.199
				c14.014-7.215,21.634-19.355,23.425-34.766c0.936-8.049-1.412-16.193-2.448-24.108c-1.077-8.234-0.405-16.87-0.405-25.159
				c0-6.895-0.311-14.576,0.781-20.806c1.512-8.629,3.996-17.224,6.761-25.518c2.657-7.973,5.189-16.001,7.962-23.933
				c-0.762,2.178,1.267-2.554,1.176-2.374c0.739-1.445,1.603-2.825,2.456-4.204c2.204-3.556,3.318-4.888,5.386-7.466
				c9.744-12.148,18.784-23.295,23.446-38.418c2.328-7.553,2.721-15.946,2.961-23.804c0.122-3.99,0.605-8.683-0.46-12.556
				c-1.296-4.714-4.627-9.182-7.56-13.007c-4.502-5.87-9.687-11.068-14.417-16.737c1.715,2.056-2.366-3.506-1.8-2.68
				c-1.166-1.698-2.132-3.518-3.084-5.34c0.358,0.686-1.194-3.377-1.135-3.185c-0.309-1.074-0.567-2.16-0.777-3.257
				c0.118,1.323,0.102,1.066-0.051-0.771c-0.546-6.896,0.39-8.66,2.098-15.729c2.014-8.333,3.502-16.585,4.213-25.148
				c0.699-8.423,0.536-16.907,0.551-25.35c0.016-8.223-0.471-17.924,2.154-25.243c5.21-14.527,13.73-28.51,22.809-41.125
				c3.982-5.534,10.052-10.259,15.57-15.005c6.611-5.686,12.953-11.787,19.522-17.084c5.351-4.314,8.923-10.526,13.785-15.345
				c4.601-4.56,11.888-8.386,18.466-11.693c14.376-7.227,29.601-12.137,43.462-20.478c14.92-8.978,30.389-17.044,46.015-24.714
				c15.348-7.533,31.85-13.406,46.115-22.898c7.524-5.007,14.571-10.841,21.252-16.916c6.014-5.468,12.103-10.578,17.464-17.795
				c4.843-6.521,8.271-13.578,11.296-21.093c3.33-8.272,2.707-16.983,2.422-25.724c-0.435-13.364-2.122-27.025-9.804-38.324
				C777.175,9.893,765.43,1.844,758.027-8.762c-8.887-12.733-18.419-25.01-26.441-38.327c-3.23-5.361-6.611-11.013-8.052-15.684
				c-0.971-3.146-0.875-2.97-0.957-6.223c-0.111-4.359-0.658,1.572,0.244-2.535c0.815-3.714-0.926,1.038,0.979-2.13
				c0.411-0.821,0.88-1.608,1.405-2.36c-1.625,2.515,1.005-0.751,1.328-1.057c3.197-3.015-2.203,1.429,1.513-1.144
				c1.227-0.85,2.512-1.616,3.785-2.393c5.523-3.369,10.98-6.529,16.069-10.561c5.036-3.99,9.229-9.1,13.733-13.677
				c5.248-5.334,10.317-10.83,15.079-16.604c5.149-6.244,9.47-12.9,14.014-19.562c3.533-5.179,7.503-9.981,10.528-15.499
				c7.519-13.71,5.601-29.664,5.601-44.727C806.855-220.59,776.855-220.59,776.855-201.244L776.855-201.244z"/>
		</g>
	</g>
	
		<radialGradient id="SVGID_1_" cx="-92.5938" cy="219.3506" r="102.3847" gradientTransform="matrix(1.0759 0 0 2.4316 2.0313 -335.2675)" gradientUnits="userSpaceOnUse">
		<stop  offset="0" style="stop-color:#FFFFFF"/>
		<stop  offset="0.5607" style="stop-color:#56B3E5"/>
		<stop  offset="0.8131" style="stop-color:#56B3E5;stop-opacity:0.1607"/>
		<stop  offset="0.9246" style="stop-color:#56B3E5;stop-opacity:0"/>
		<stop  offset="1" style="stop-color:#56B3E5;stop-opacity:0.0158"/>
	</radialGradient>
	<path display="inline" fill="url(#SVGID_1_)" d="M-194.667,272.667c0,0-18.377-206.772,147.026-211.648
		C117.762,56.143-202.092,430.646-173.5,312"/>
</g>
</svg>
