<?xml version="1.0" encoding="utf-8"?>
<!-- Generator: Adobe Illustrator 16.0.0, SVG Export Plug-In . SVG Version: 6.00 Build 0)  -->
<!DOCTYPE svg PUBLIC "-//W3C//DTD SVG 1.1//EN" "http://www.w3.org/Graphics/SVG/1.1/DTD/svg11.dtd">
<svg version="1.1" id="Layer_1" xmlns="http://www.w3.org/2000/svg" xmlns:xlink="http://www.w3.org/1999/xlink" x="0px" y="0px"
	 width="366.5px" height="103.496px" viewBox="0 0 366.5 103.496" enable-background="new 0 0 366.5 103.496" xml:space="preserve">
<g id="Layer_1_1_" display="none">
</g>
<g id="Layer_2">
	<g opacity="0.75">
		<path fill="#1F448B" d="M36.293,91.279v-0.998l-0.688,0.713c-0.879-0.748-18.118-12.301-29.492-19.883l-0.445-0.297v-16.66
			c0-7.482,8.101-12.403,8.445-12.609l57.786-27.558h280.477c3.423,0,5.876,0.801,7.293,2.381c1.248,1.392,1.232,2.879,1.207,3.243
			v11.091l4.25,2.833V51.91l-4.083,3v10.791L326.341,87.9l-85.745,0.998l-2.005,2.38L36.293,91.279L36.293,91.279z"/>
		<path fill="#E4F4F9" d="M352.376,14.987c8,0,7.5,4.583,7.5,4.583v11.667l4.25,2.833v17.333l-4.083,3v10.75l-34,21.75l-85.917,1
			l-2,2.375c0,0-201.468,0-201.833,0c0.375,0-29.625-20-29.625-20s0-9.125,0-16.125s7.958-11.75,7.958-11.75l57.5-27.417
			C72.126,14.987,344.376,14.987,352.376,14.987 M36.293,90.279L36.293,90.279L36.293,90.279 M352.376,12.987H72.126h-0.452
			l-0.408,0.195l-57.5,27.417l-0.085,0.04l-0.08,0.048c-0.364,0.218-8.933,5.424-8.933,13.467v16.125v1.07l0.891,0.594
			c11.216,7.477,28.304,18.926,29.41,19.822c-0.51-0.413-0.865-1.285-0.558-2.155l1.882,0.666v2.003h201.833h0.931l0.601-0.712
			l1.409-1.674l85.001-0.989l0.571-0.007l0.482-0.31l34-21.75l0.922-0.59v-1.095v-9.737l3.268-2.4l0.815-0.6v-1.013V34.07V33
			l-0.891-0.594l-3.359-2.239V19.629c0.027-0.557-0.019-2.319-1.463-3.929C358.799,13.9,356.095,12.987,352.376,12.987
			L352.376,12.987z"/>
	</g>
	<g>
		<g>
			<defs>
				<path id="SVGID_1_" d="M326.043,86.904l34-21.75v-10.75l4.083-3V34.07l-4.25-2.833V19.57c0,0,0.5-4.583-7.5-4.583
					s-280.25,0-280.25,0l-57.5,27.417c0,0-7.958,4.75-7.958,11.75s0,16.125,0,16.125s30,20,29.625,20s201.833,0,201.833,0l2-2.375
					L326.043,86.904z"/>
			</defs>
			<clipPath id="SVGID_2_">
				<use xlink:href="#SVGID_1_"  overflow="visible"/>
			</clipPath>
			<path clip-path="url(#SVGID_2_)" fill="none" stroke="#88D6F6" stroke-width="3" stroke-miterlimit="10" d="M288.626,11.237
				c0,0,7.667,11.083,14.5,11.083s44.042,0,44.042,0s5,0.333,5,3.833s0,32.833,0,32.833s0.124,4.667-4.792,7.667
				s-22.416,12.25-22.416,12.25s-2.168,1.417-12.584,1.417s-115.917,0-115.917,0l-15.167,19.084"/>
		</g>
		<g>
			<defs>
				<path id="SVGID_3_" d="M326.043,86.904l34-21.75v-10.75l4.083-3V34.07l-4.25-2.833V19.57c0,0,0.5-4.583-7.5-4.583
					s-280.25,0-280.25,0l-57.5,27.417c0,0-7.958,4.75-7.958,11.75s0,16.125,0,16.125s30,20,29.625,20s201.833,0,201.833,0l2-2.375
					L326.043,86.904z"/>
			</defs>
			<clipPath id="SVGID_4_">
				<use xlink:href="#SVGID_3_"  overflow="visible"/>
			</clipPath>
			<polyline clip-path="url(#SVGID_4_)" fill="none" stroke="#88D6F6" stroke-width="3" stroke-miterlimit="10" points="
				113.626,83.57 38.96,83.57 12.96,68.237 12.96,52.632 78.96,22.57 167.293,22.57 190.127,-0.263 			"/>
		</g>
	</g>
	<g enable-background="new    ">
		<path fill="#EAF7FE" d="M117.435,60.737c-5.47,0-8.204-1.829-8.204-5.488V42.397c0-0.784,0.495-1.176,1.484-1.176
			c1.026,0,1.54,0.392,1.54,1.176v12.768c0,2.185,1.773,3.276,5.32,3.276h11.592c0.933,0,1.4,0.383,1.4,1.147
			c0,0.766-0.467,1.148-1.4,1.148H117.435z"/>
		<path fill="#EAF7FE" d="M137.791,43.657c0,0.896-0.542,1.344-1.624,1.344s-1.624-0.447-1.624-1.344
			c0-0.896,0.542-1.344,1.624-1.344S137.791,42.761,137.791,43.657z M134.683,48.165c0-0.784,0.495-1.176,1.484-1.176
			s1.484,0.392,1.484,1.176v11.536c0,0.784-0.495,1.176-1.484,1.176s-1.484-0.392-1.484-1.176V48.165z"/>
		<path fill="#EAF7FE" d="M151.93,65.441c-0.934,0-1.4-0.364-1.4-1.092c0-0.729,0.466-1.093,1.4-1.093h4.228
			c2.576,0,3.864-0.653,3.864-1.96v-0.979h-9.884c-4.834,0-7.252-1.475-7.252-4.424v-4.313c0-2.968,2.417-4.452,7.252-4.452h5.6
			c4.834,0,7.252,1.484,7.252,4.452v9.688c0,2.781-2.277,4.172-6.832,4.172H151.93z M145.882,56.256
			c0,1.271,1.325,1.904,3.976,1.904h10.164v-6.636c0-1.4-1.326-2.1-3.976-2.1h-6.188c-2.651,0-3.976,0.699-3.976,2.1V56.256z"/>
		<path fill="#EAF7FE" d="M185.418,51.525c0-1.4-1.316-2.1-3.948-2.1h-10.164v10.275c0,0.784-0.495,1.176-1.484,1.176
			s-1.484-0.392-1.484-1.176V42.004c0-0.783,0.495-1.176,1.484-1.176s1.484,0.393,1.484,1.176v5.124h9.884
			c4.816,0,7.224,1.484,7.224,4.452v8.12c0,0.784-0.495,1.176-1.484,1.176c-1.008,0-1.512-0.392-1.512-1.176V51.525z"/>
		<path fill="#EAF7FE" d="M197.766,49.425v10.275c0,0.784-0.484,1.176-1.455,1.176c-1.008,0-1.512-0.392-1.512-1.176V49.425h-1.148
			c-0.915,0-1.372-0.364-1.372-1.093c0-0.728,0.457-1.092,1.372-1.092h1.148v-2.576c0-0.784,0.484-1.176,1.455-1.176
			c1.008,0,1.512,0.392,1.512,1.176v2.576h4.816c0.934,0,1.4,0.364,1.4,1.092c0,0.729-0.467,1.093-1.4,1.093H197.766z"/>
		<path fill="#EAF7FE" d="M224.758,51.581c0-1.437-1.391-2.155-4.172-2.155h-5.6c-2.764,0-4.145,0.719-4.145,2.155v8.12
			c0,0.784-0.494,1.176-1.483,1.176s-1.484-0.392-1.484-1.176v-8.12c0-2.968,2.408-4.452,7.224-4.452h5.404
			c4.816,0,7.225,1.484,7.225,4.452v8.12c0,0.784-0.495,1.176-1.484,1.176c-0.99,0-1.484-0.392-1.484-1.176V51.581z"/>
		<path fill="#EAF7FE" d="M236.154,43.657c0,0.896-0.542,1.344-1.625,1.344c-1.082,0-1.623-0.447-1.623-1.344
			c0-0.896,0.541-1.344,1.623-1.344C235.612,42.313,236.154,42.761,236.154,43.657z M233.046,48.165
			c0-0.784,0.495-1.176,1.483-1.176c0.99,0,1.484,0.392,1.484,1.176v11.536c0,0.784-0.494,1.176-1.484,1.176
			c-0.988,0-1.483-0.392-1.483-1.176V48.165z"/>
		<path fill="#EAF7FE" d="M258.218,51.581c0-1.437-1.392-2.155-4.172-2.155h-5.601c-2.763,0-4.144,0.719-4.144,2.155v8.12
			c0,0.784-0.495,1.176-1.483,1.176c-0.99,0-1.484-0.392-1.484-1.176v-8.12c0-2.968,2.408-4.452,7.224-4.452h5.403
			c4.816,0,7.225,1.484,7.225,4.452v8.12c0,0.784-0.494,1.176-1.484,1.176c-0.989,0-1.483-0.392-1.483-1.176V51.581z"/>
		<path fill="#EAF7FE" d="M275.409,65.441c-0.934,0-1.399-0.364-1.399-1.092c0-0.729,0.466-1.093,1.399-1.093h4.228
			c2.576,0,3.865-0.653,3.865-1.96v-0.979h-9.885c-4.834,0-7.252-1.475-7.252-4.424v-4.313c0-2.968,2.418-4.452,7.252-4.452h5.6
			c4.835,0,7.252,1.484,7.252,4.452v9.688c0,2.781-2.277,4.172-6.832,4.172H275.409z M269.361,56.256
			c0,1.271,1.325,1.904,3.977,1.904h10.164v-6.636c0-1.4-1.326-2.1-3.977-2.1h-6.188c-2.651,0-3.977,0.699-3.977,2.1V56.256z"/>
	</g>
</g>
</svg>
