<?xml version="1.0" encoding="utf-8"?>
<!-- Generator: Adobe Illustrator 16.0.0, SVG Export Plug-In . SVG Version: 6.00 Build 0)  -->
<!DOCTYPE svg PUBLIC "-//W3C//DTD SVG 1.1//EN" "http://www.w3.org/Graphics/SVG/1.1/DTD/svg11.dtd">
<svg version="1.1" id="Layer_1" xmlns="http://www.w3.org/2000/svg" xmlns:xlink="http://www.w3.org/1999/xlink" x="0px" y="0px"
	 width="418px" height="167.333px" viewBox="0 0 418 167.333" enable-background="new 0 0 418 167.333" xml:space="preserve">
<g id="Layer_1_2_">
	<g id="Layer_1_1_" display="none">
		
			<path display="inline" opacity="0.75" fill="#FFFFFF" stroke="#000000" stroke-width="6" stroke-miterlimit="10" enable-background="new    " d="
			M472.889,123.555c0,6.627-5.373,12-12,12h-538.5c-6.627,0-12-5.373-12-12V93.389c0-6.627,5.373-12,12-12h538.5
			c6.627,0,12,5.373,12,12V123.555z"/>
		
			<path display="inline" opacity="0.75" fill="#FFFFFF" stroke="#000000" stroke-width="6" stroke-miterlimit="10" enable-background="new    " d="
			M463.763,35.824c2.05,6.302-1.396,13.074-7.7,15.123L-56.032,217.506c-6.302,2.05-13.073-1.397-15.123-7.7l-9.331-28.687
			c-2.05-6.305,1.397-13.074,7.7-15.123L439.309-0.563c6.305-2.05,13.073,1.397,15.123,7.7L463.763,35.824z"/>
		<g display="inline">
			<g>
				<path fill="none" stroke="#74BF44" stroke-width="15" stroke-miterlimit="10" d="M-138.09,148.42
					c-12.408-32.926-17.906-83.063,33.201-126.63"/>
				<g>
					<path fill="#74BF44" d="M-118.778,184.29c-2.568-20.283-2.819-46.981,1.751-66l-23.082,25.15l-33.825,4.563
						C-155.715,155.122-133.949,170.586-118.778,184.29z"/>
				</g>
			</g>
		</g>
		<g display="inline">
			<g>
				<path fill="none" stroke="#74BF44" stroke-width="15" stroke-miterlimit="10" d="M526.199,57.659
					c12.408,32.927,17.906,83.064-33.201,126.63"/>
				<g>
					<path fill="#74BF44" d="M506.887,21.79c2.568,20.284,2.819,46.983-1.751,66.001l23.082-25.152l33.824-4.563
						C543.824,50.958,522.059,35.493,506.887,21.79z"/>
				</g>
			</g>
		</g>
	</g>
	<g id="Layer_2" display="none">
		
			<path display="inline" opacity="0.75" fill="#F5FBFE" stroke="#000000" stroke-width="15" stroke-miterlimit="10" enable-background="new    " d="
			M357,119.667c0,6.627-5.373,12-12,12H38c-6.627,0-12-5.373-12-12v-23c0-6.627,5.373-12,12-12h307c6.627,0,12,5.373,12,12V119.667z
			"/>
		
			<path display="inline" opacity="0.75" fill="#F5FBFE" stroke="#000000" stroke-width="15" stroke-miterlimit="10" enable-background="new    " d="
			M349.058,54.73c1.313,6.496-2.89,12.827-9.385,14.139L38.755,129.676c-6.496,1.313-12.826-2.889-14.139-9.385L20.06,97.747
			c-1.313-6.496,2.889-12.826,9.385-14.139L330.363,22.8c6.496-1.313,12.826,2.889,14.14,9.385L349.058,54.73z"/>
		<g display="inline">
			<g>
				<path fill="none" stroke="#74BF44" stroke-width="10" stroke-miterlimit="10" d="M389.787,48.277
					c7.913,19.947,10.896,49.534-15.787,81.64"/>
				<g>
					<path fill="#74BF44" d="M374,22.561c2.703,14.902,3.946,34.641,1.319,48.889l16.077-19.519l24.839-4.716
						C402.479,42.672,385.765,32.095,374,22.561z"/>
				</g>
			</g>
		</g>
		<g display="inline">
			<g>
				<path fill="none" stroke="#DA3A26" stroke-width="10" stroke-miterlimit="10" d="M443.145,104.2
					c7.912-19.947,10.896-49.535-15.786-81.639"/>
				<g>
					<path fill="#DA3A26" d="M427.355,129.917c11.771-9.533,28.48-20.108,42.238-24.651l-24.843-4.72L428.68,81.03
						C431.308,95.277,430.063,115.016,427.355,129.917z"/>
				</g>
			</g>
		</g>
	</g>
	<g id="Layer_3">
		<path fill="#D3E7F8" stroke="#000000" stroke-width="10" stroke-miterlimit="10" d="M440.258,186.219
			c0,9.229-7.479,16.705-16.705,16.705H-10.843c-9.228,0-16.706-7.477-16.706-16.705V-17.055c0-9.228,7.48-16.706,16.706-16.706
			h434.394c9.227,0,16.705,7.479,16.705,16.706v203.274H440.258z"/>
		<g>
			<defs>
				<path id="SVGID_1_" d="M440.258,186.219c0,9.229-7.479,16.705-16.705,16.705H-10.843c-9.228,0-16.706-7.477-16.706-16.705
					V-17.055c0-9.228,7.48-16.706,16.706-16.706h434.394c9.227,0,16.705,7.479,16.705,16.706v203.274H440.258z"/>
			</defs>
			<clipPath id="SVGID_2_">
				<use xlink:href="#SVGID_1_"  overflow="visible"/>
			</clipPath>
			<g clip-path="url(#SVGID_2_)">
				
					<image overflow="visible" width="589" height="302" xlink:href="ED662999.jpg"  transform="matrix(0.7837 0 0 0.7837 -27.5488 -33.7607)">
				</image>
			</g>
		</g>
		<g>
			<g>
				<defs>
					<path id="SVGID_3_" d="M440.258,186.219c0,9.229-7.479,16.705-16.705,16.705H-10.843c-9.228,0-16.706-7.477-16.706-16.705
						V-17.055c0-9.228,7.48-16.706,16.706-16.706h434.394c9.227,0,16.705,7.479,16.705,16.706v203.274H440.258z"/>
				</defs>
				<clipPath id="SVGID_4_">
					<use xlink:href="#SVGID_3_"  overflow="visible"/>
				</clipPath>
				<g transform="matrix(1 0 0 1 -1.907349e-006 0)" clip-path="url(#SVGID_4_)">
					
						<image overflow="visible" enable-background="new    " width="592" height="303" xlink:href="ED662999.jpg"  transform="matrix(0.7826 0 0 0.7826 -8117.6523 -7914.5649)">
					</image>
				</g>
			</g>
			<g>
				<defs>
					<path id="SVGID_5_" d="M440.258,186.219c0,9.229-7.479,16.705-16.705,16.705H-10.843c-9.228,0-16.706-7.477-16.706-16.705
						V-17.055c0-9.228,7.48-16.706,16.706-16.706h434.394c9.227,0,16.705,7.479,16.705,16.706v203.274H440.258z"/>
				</defs>
				<clipPath id="SVGID_6_">
					<use xlink:href="#SVGID_5_"  overflow="visible"/>
				</clipPath>
				
					<rect x="-59.5" y="-72.833" display="none" opacity="0.25" clip-path="url(#SVGID_6_)" enable-background="new    " width="533" height="308"/>
			</g>
		</g>
		<g>
			<g>
				<rect x="-14.279" y="63.047" fill="#70B3FC" width="8.438" height="38.895"/>
				<path fill="#F8FCFF" d="M-6.841,64.047v36.895h-6.438V64.047H-6.841 M-4.841,62.047h-2h-6.438h-2v2v36.895v2h2h6.438h2v-2
					V64.047V62.047L-4.841,62.047z"/>
			</g>
			<g>
				<rect x="-2.909" y="63.047" fill="#70B3FC" width="11.515" height="38.895"/>
				<path fill="#F8FCFF" d="M7.605,64.047v36.895H-1.91V64.047H7.605 M9.605,62.047h-2H-1.91h-2v2v36.895v2h2h9.515h2v-2V64.047
					V62.047L9.605,62.047z"/>
			</g>
			<g>
				<rect x="12.755" y="63.047" fill="#70B3FC" width="14.877" height="38.895"/>
				<path fill="#F8FCFF" d="M26.632,64.047v36.895H13.755V64.047H26.632 M28.632,62.047h-2H13.755h-2v2v36.895v2h2h12.877h2v-2
					V64.047V62.047L28.632,62.047z"/>
			</g>
			<g>
				<rect x="31.319" y="63.047" fill="#70B3FC" width="27.758" height="38.895"/>
				<path fill="#F8FCFF" d="M58.077,64.047v36.895H32.319V64.047H58.077 M60.077,62.047h-2H32.319h-2v2v36.895v2h2h25.758h2v-2
					V64.047V62.047L60.077,62.047z"/>
			</g>
			<g>
				<polygon fill="#70B3FC" points="67.055,61.453 86.112,82.494 67.055,103.536 				"/>
				<path fill="#F8FCFF" d="M68.055,64.047l16.708,18.447l-16.708,18.448V64.047 M66.055,58.859v5.188v36.895v5.188l3.482-3.844
					l16.708-18.449l1.216-1.343l-1.216-1.343L69.537,62.704L66.055,58.859L66.055,58.859z"/>
			</g>
		</g>
		<g>
			<g>
				<rect x="420.44" y="63.547" fill="#FF0808" width="7.439" height="37.895"/>
				<path fill="#FF7300" d="M427.381,64.047v36.895h-6.439V64.047H427.381 M428.381,63.047h-1h-6.439h-1v1v36.895v1h1h6.439h1v-1
					V64.047V63.047L428.381,63.047z"/>
			</g>
			<g>
				<rect x="405.995" y="63.547" fill="#FF0808" width="10.515" height="37.895"/>
				<path fill="#FF7300" d="M416.01,64.047v36.895h-9.515V64.047H416.01 M417.01,63.047h-1h-9.515h-1v1v36.895v1h1h9.515h1v-1
					V64.047V63.047L417.01,63.047z"/>
			</g>
			<g>
				<rect x="386.97" y="63.547" fill="#FF0808" width="13.877" height="37.895"/>
				<path fill="#FF7300" d="M400.347,64.047v36.895H387.47V64.047H400.347 M401.347,63.047h-1H387.47h-1v1v36.895v1h1h12.877h1v-1
					V64.047V63.047L401.347,63.047z"/>
			</g>
			<g>
				<rect x="355.525" y="63.547" fill="#FF0808" width="26.759" height="37.895"/>
				<path fill="#FF7300" d="M381.784,64.047v36.895h-25.759V64.047H381.784 M382.784,63.047h-1h-25.759h-1v1v36.895v1h1h25.759h1v-1
					V64.047V63.047L382.784,63.047z"/>
			</g>
			<g>
				<polygon fill="#FF0808" points="328.663,82.494 346.548,62.75 346.548,102.239 				"/>
				<path fill="#FF7300" d="M346.048,64.047v36.895l-16.71-18.448L346.048,64.047 M347.048,61.454l-1.741,1.922l-16.71,18.447
					l-0.607,0.671l0.607,0.671l16.71,18.448l1.741,1.923v-2.594V64.047V61.454L347.048,61.454z"/>
			</g>
		</g>
	</g>
	<g id="Layer_3_1_">
	</g>
</g>
<g id="Layer_2_1_">
</g>
</svg>
