<?xml version="1.0" encoding="utf-8"?>
<!-- Generator: Adobe Illustrator 16.0.0, SVG Export Plug-In . SVG Version: 6.00 Build 0)  -->
<!DOCTYPE svg PUBLIC "-//W3C//DTD SVG 1.1//EN" "http://www.w3.org/Graphics/SVG/1.1/DTD/svg11.dtd">
<svg version="1.1" xmlns="http://www.w3.org/2000/svg" xmlns:xlink="http://www.w3.org/1999/xlink" x="0px" y="0px" width="366.5px"
	 height="103.495px" viewBox="0 0 366.5 103.495" enable-background="new 0 0 366.5 103.495" xml:space="preserve">
<g id="Layer_1" display="none">
	
		<image display="inline" overflow="visible" width="1920" height="1080" xlink:href="FD92DE0D.jpg"  transform="matrix(1 0 0 1 -986.5 -429.0962)">
	</image>
</g>
<g id="Layer_2">
	<g opacity="0.75">
		<path fill="#1F448B" d="M36.293,91.279v-0.998l-0.688,0.713c-0.879-0.749-18.118-12.301-29.492-19.883l-0.445-0.297v-16.66
			c0-7.482,8.101-12.403,8.445-12.609l57.786-27.558h280.477c3.423,0,5.876,0.801,7.293,2.381c1.248,1.392,1.232,2.879,1.207,3.243
			v11.091l4.25,2.833V51.91l-4.083,3v10.791L326.341,87.9l-85.745,0.998l-2.005,2.38H36.293z"/>
		<path fill="#E4F4F9" d="M352.376,14.987c8,0,7.5,4.583,7.5,4.583v11.667l4.25,2.833v17.333l-4.083,3v10.75l-34,21.75l-85.917,1
			l-2,2.375c0,0-201.468,0-201.833,0c0.375,0-29.625-20-29.625-20s0-9.125,0-16.125s7.958-11.75,7.958-11.75l57.5-27.417
			C72.126,14.987,344.376,14.987,352.376,14.987 M36.293,90.279L36.293,90.279L36.293,90.279 M352.376,12.987H72.126h-0.452
			l-0.408,0.195l-57.5,27.417l-0.085,0.04l-0.08,0.048c-0.364,0.218-8.933,5.424-8.933,13.467v16.125v1.07l0.891,0.594
			c11.216,7.477,28.304,18.926,29.41,19.822c-0.51-0.413-0.865-1.285-0.558-2.155l1.882,0.666v2.003h201.833h0.931l0.6-0.712
			l1.409-1.674l85.001-0.989l0.572-0.007l0.482-0.309l34-21.75l0.922-0.59v-1.095v-9.738l3.268-2.4l0.815-0.6v-1.012V34.07V33
			l-0.891-0.594l-3.359-2.239V19.629c0.027-0.557-0.019-2.319-1.463-3.929C358.799,13.9,356.095,12.987,352.376,12.987
			L352.376,12.987z"/>
	</g>
	<g>
		<defs>
			<path id="SVGID_1_" d="M326.043,86.904l34-21.75v-10.75l4.083-3V34.07l-4.25-2.833V19.57c0,0,0.5-4.583-7.5-4.583
				s-280.25,0-280.25,0l-57.5,27.417c0,0-7.958,4.75-7.958,11.75s0,16.125,0,16.125s30,20,29.625,20s201.833,0,201.833,0l2-2.375
				L326.043,86.904z"/>
		</defs>
		<clipPath id="SVGID_2_">
			<use xlink:href="#SVGID_1_"  overflow="visible"/>
		</clipPath>
		<path clip-path="url(#SVGID_2_)" fill="none" stroke="#88D6F6" stroke-width="3" stroke-miterlimit="10" d="M288.626,11.237
			c0,0,7.667,11.083,14.5,11.083s44.042,0,44.042,0s5,0.333,5,3.833s0,32.833,0,32.833s0.124,4.667-4.792,7.667
			s-22.416,12.25-22.416,12.25s-2.168,1.417-12.584,1.417s-115.917,0-115.917,0l-15.167,19.084"/>
		<polyline clip-path="url(#SVGID_2_)" fill="none" stroke="#88D6F6" stroke-width="3" stroke-miterlimit="10" points="
			113.626,83.57 38.96,83.57 12.96,68.237 12.96,52.633 78.96,22.57 167.293,22.57 190.127,-0.263 		"/>
	</g>
	<g>
		<path fill="#EAF7FE" d="M130.748,49.089c0,3.603-2.902,5.404-8.708,5.404h-11.424v5.208c0,0.784-0.514,1.176-1.54,1.176
			c-0.989,0-1.483-0.392-1.483-1.176v-17.36c0-0.653,0.429-0.98,1.287-0.98h13.16c5.806,0,8.708,1.802,8.708,5.404V49.089z
			 M110.616,52.197h11.508c3.733,0,5.601-1.064,5.601-3.192v-2.156c0-2.128-1.858-3.192-5.572-3.192H110.84
			c-0.149,0-0.224,0.066-0.224,0.196V52.197z"/>
		<path fill="#EAF7FE" d="M152.504,51.525c0-1.4-1.315-2.1-3.947-2.1h-10.164v10.276c0,0.784-0.495,1.176-1.484,1.176
			s-1.483-0.392-1.483-1.176V42.005c0-0.784,0.494-1.176,1.483-1.176s1.484,0.392,1.484,1.176v5.124h9.884
			c4.816,0,7.224,1.484,7.224,4.452v8.12c0,0.784-0.494,1.176-1.483,1.176c-1.008,0-1.513-0.392-1.513-1.176V51.525z"/>
		<path fill="#EAF7FE" d="M166.027,60.737c-3.995,0-5.992-1.241-5.992-3.724v-1.596c0-2.464,1.997-3.696,5.992-3.696h11.9v-0.42
			c0-1.306-1.148-1.96-3.444-1.96h-3.948c-0.934,0-1.399-0.364-1.399-1.092c0-0.747,0.466-1.12,1.399-1.12h3.948
			c4.237,0,6.356,1.391,6.356,4.172v5.488c0,2.632-2.035,3.948-6.104,3.948H166.027z M174.567,58.553c2.24,0,3.36-0.616,3.36-1.848
			v-3.052h-11.676c-2.185,0-3.276,0.57-3.276,1.708v1.456c0,1.158,1.092,1.736,3.276,1.736H174.567z"/>
		<path fill="#EAF7FE" d="M204.108,57.601c0,2.091-2.128,3.136-6.385,3.136h-10.92c-0.934,0-1.399-0.364-1.399-1.092
			s0.466-1.092,1.399-1.092h10.92c2.296,0,3.444-0.317,3.444-0.952v-1.568c0-0.634-1.148-0.952-3.444-0.952h-5.768
			c-4.256,0-6.384-1.018-6.384-3.052v-1.316c0-2.389,2.193-3.584,6.58-3.584h3.836c0.952,0,1.428,0.374,1.428,1.12
			c0,0.374-0.126,0.648-0.378,0.826c-0.252,0.178-0.603,0.266-1.05,0.266h-3.836c-2.446,0-3.668,0.458-3.668,1.372v1.232
			c0,0.766,1.213,1.148,3.64,1.148h5.768c4.145,0,6.217,0.952,6.217,2.856V57.601z"/>
		<path fill="#EAF7FE" d="M211.808,54.857v1.708c0,1.326,1.297,1.988,3.892,1.988h4.145c0.933,0,1.399,0.364,1.399,1.092
			s-0.467,1.092-1.399,1.092h-4.145c-4.555,0-6.832-1.381-6.832-4.144v-5.488c0-2.65,2.034-3.976,6.104-3.976h8.092
			c3.976,0,5.964,1.195,5.964,3.584v3.136c0,0.672-0.43,1.008-1.288,1.008H211.808z M211.808,52.925h14.056
			c0.149,0,0.224-0.065,0.224-0.196v-1.456c0-1.288-1.082-1.932-3.248-1.932h-7.699c-2.222,0-3.332,0.644-3.332,1.932V52.925z"/>
	</g>
</g>
</svg>
